<svg width="81" height="80" viewBox="0 0 81 80" fill="none" xmlns="http://www.w3.org/2000/svg">
<g clip-path="url(#clip0_7336_3566)">
<path d="M61.2537 26.4425C60.6459 25.83 59.6567 25.8259 59.044 26.4336C58.4315 27.0414 58.4275 28.0308 59.0353 28.6434L59.0447 28.6531C59.1887 28.7989 59.3604 28.9147 59.5496 28.9936C59.7388 29.0725 59.9418 29.1129 60.1468 29.1126C60.545 29.1126 60.9437 28.9605 61.2497 28.657C61.8623 28.0492 61.8615 27.0551 61.2537 26.4425Z" fill="#171717"/>
<path d="M80.0423 45.2339L65.5302 30.7217C64.92 30.1117 63.9306 30.1117 63.3203 30.7217C62.7101 31.3319 62.7101 32.3213 63.3203 32.9316L74.8409 44.452H47.3683C45.0892 44.452 43.2353 42.598 43.2353 40.3191V12.8466L54.3577 23.9688C54.9678 24.5788 55.9572 24.5788 56.5675 23.9688C57.1777 23.3586 57.1777 22.3692 56.5675 21.7589L42.4534 7.645C41.8433 7.035 40.8539 7.035 40.2437 7.645L15.3344 32.5548C14.7242 33.165 14.7242 34.1544 15.3344 34.7647L52.9233 72.3534C53.2163 72.6464 53.6137 72.811 54.0281 72.811C54.4425 72.811 54.8399 72.6464 55.133 72.3534L80.0425 47.4438C80.3354 47.1506 80.5 46.7532 80.4999 46.3388C80.4999 45.9244 80.3353 45.527 80.0423 45.2339ZM40.1106 12.198V32.0973H20.2112L40.1106 12.198ZM52.4656 67.4763L20.2112 35.2222H40.1106V40.3191C40.1106 44.3211 43.3666 47.577 47.3686 47.577H52.4656V67.4763ZM55.5905 67.4764V47.577H75.4897L55.5905 67.4764ZM11.2236 39.6867H2.0625C1.19953 39.6867 0.5 40.3864 0.5 41.2492C0.5 42.112 1.19953 42.8117 2.0625 42.8117H11.2236C12.0866 42.8117 12.7861 42.1122 12.7861 41.2492C12.7861 40.3864 12.0866 39.6867 11.2236 39.6867ZM15.8822 39.6867H15.8587C14.9958 39.6867 14.2962 40.3864 14.2962 41.2492C14.2962 42.112 14.9958 42.8117 15.8587 42.8117H15.8822C16.7452 42.8117 17.4447 42.112 17.4447 41.2492C17.4447 40.3864 16.7452 39.6867 15.8822 39.6867ZM7.065 23.2809H2.06453C1.20156 23.2809 0.502031 23.9806 0.502031 24.8434C0.502031 25.7063 1.20156 26.4059 2.06453 26.4059H7.065C7.92797 26.4059 8.6275 25.7063 8.6275 24.8434C8.6275 23.9806 7.92797 23.2809 7.065 23.2809ZM18.0797 23.2809H12.1691C11.3061 23.2809 10.6066 23.9806 10.6066 24.8434C10.6066 25.7063 11.3061 26.4059 12.1691 26.4059H18.0797C18.9427 26.4059 19.6422 25.7063 19.6422 24.8434C19.6422 23.9806 18.9427 23.2809 18.0797 23.2809ZM21.4816 48.2803H12.7317C11.8687 48.2803 11.1692 48.98 11.1692 49.8428C11.1692 50.7056 11.8687 51.4053 12.7317 51.4053H21.4816C22.3445 51.4053 23.0441 50.7056 23.0441 49.8428C23.0441 48.98 22.3444 48.2803 21.4816 48.2803ZM28.3137 58.28H6.28266C5.41969 58.28 4.72016 58.9797 4.72016 59.8425C4.72016 60.7053 5.41969 61.405 6.28266 61.405H28.3137C29.1767 61.405 29.8762 60.7053 29.8762 59.8425C29.8762 58.9797 29.1767 58.28 28.3137 58.28Z" fill="#171717"/>
</g>
<defs>
<clipPath id="clip0_7336_3566">
<rect width="80" height="80" fill="white" transform="translate(0.5)"/>
</clipPath>
</defs>
</svg>
