<svg width="13" height="12" viewBox="0 0 13 12" fill="none" xmlns="http://www.w3.org/2000/svg">
<g clip-path="url(#clip0_7336_2417)">
<path d="M7.13102 5.98965L2.64185 10.479C2.51824 10.6023 2.45024 10.7672 2.45024 10.943C2.45024 11.1189 2.51824 11.2837 2.64185 11.4072L3.03522 11.8004C3.15863 11.9241 3.32361 11.9922 3.49941 11.9922C3.67522 11.9922 3.84 11.9241 3.96351 11.8004L9.30858 6.45541C9.43258 6.33151 9.50049 6.16595 9.5 5.98994C9.50049 5.81316 9.43268 5.6478 9.30858 5.5238L3.96849 0.183995C3.84497 0.0602875 3.68019 -0.00781059 3.50429 -0.00781059C3.32849 -0.00781059 3.16371 0.0602875 3.0401 0.183995L2.64683 0.577166C2.39092 0.833068 2.39092 1.24965 2.64683 1.50546L7.13102 5.98965Z" fill="#171717"/>
</g>
<defs>
<clipPath id="clip0_7336_2417">
<rect width="12" height="12" fill="white" transform="matrix(-1 0 0 -1 12.5 12)"/>
</clipPath>
</defs>
</svg>
