<svg width="65" height="64" viewBox="0 0 65 64" fill="none" xmlns="http://www.w3.org/2000/svg">
<g clip-path="url(#clip0_7336_7718)">
<path d="M47.0171 5.97662C43.132 2.11888 37.9882 0 32.5167 0C32.4672 0 32.4166 0.000125 32.3671 0.0005C27.0253 0.038125 21.9677 2.131 18.1257 5.89363C14.283 9.657 12.0866 14.67 11.9415 20.0089C11.7901 25.5725 13.828 30.8419 17.6797 34.8465C20.7128 38 22.3832 42.1944 22.3832 46.6572V55.2425C22.3832 57.0064 23.6078 58.4888 25.2511 58.8864V60.0311C25.2511 62.2195 27.0315 63.9999 29.2198 63.9999H35.7823C37.9707 63.9999 39.7511 62.2195 39.7511 60.0311V58.893C41.4087 58.5056 42.6475 57.0165 42.6475 55.2425V46.6575C42.6475 42.253 44.3637 38.0101 47.4803 34.7106C51.1023 30.876 53.0971 25.8582 53.0971 20.5816C53.0971 15.0566 50.9378 9.86975 47.0171 5.97662ZM37.2512 60.0312C37.2512 60.8411 36.5923 61.5 35.7825 61.5H29.22C28.4101 61.5 27.7512 60.8411 27.7512 60.0312V58.9921H37.2512V60.0312ZM40.1476 55.2425C40.1476 55.9315 39.5871 56.4921 38.898 56.4921H26.133C25.4438 56.4921 24.8833 55.9315 24.8833 55.2425V48.1331H40.1476V55.2425ZM30.5518 45.6331V29.8222H34.4461V45.633H30.5518V45.6331ZM45.6631 32.9939C42.3478 36.5039 40.4208 40.9581 40.1746 45.633H36.9461V29.8222H38.0696C40.0676 29.8222 41.6932 28.1967 41.6932 26.1986V26.0049C41.6932 24.0067 40.0676 22.3812 38.0696 22.3812C36.0716 22.3812 34.4461 24.0067 34.4461 26.0049V27.3222H30.5518V26.0049C30.5518 24.0067 28.9263 22.3812 26.9283 22.3812H26.6821C24.6841 22.3812 23.0586 24.0067 23.0586 26.0049V26.1986C23.0586 28.1966 24.6841 29.8222 26.6821 29.8222H28.0518V45.633H24.8576C24.619 40.9051 22.7313 36.492 19.4816 33.1134C16.0978 29.5954 14.3075 24.9655 14.4406 20.0769C14.7023 10.4531 22.752 2.56838 32.3847 2.50038C37.2465 2.46625 41.8115 4.33075 45.2557 7.75063C48.7003 11.1709 50.5972 15.7277 50.5972 20.5816C50.5972 25.2174 48.8448 29.6254 45.6631 32.9939ZM36.9461 27.3222V26.0049C36.9461 25.3852 37.4501 24.8812 38.0696 24.8812C38.6892 24.8812 39.1932 25.3854 39.1932 26.0049V26.1986C39.1932 26.8182 38.6892 27.3222 38.0696 27.3222H36.9461ZM28.0517 26.0049V27.3222H26.682C26.0625 27.3222 25.5585 26.8182 25.5585 26.1986V26.0049C25.5585 25.3852 26.0625 24.8812 26.682 24.8812H26.9282C27.5477 24.8812 28.0517 25.3855 28.0517 26.0049Z" fill="#3A3B3E"/>
<path d="M45.9134 15.17C44.8396 12.5042 43.0134 10.2356 40.6323 8.60934C38.1915 6.94247 35.3305 6.07247 32.3659 6.09334C31.6755 6.09822 31.1197 6.66184 31.1246 7.35222C31.1295 8.03959 31.6882 8.59334 32.3744 8.59334H32.3834L32.4706 8.59309C37.393 8.59309 41.7534 11.5337 43.5946 16.1041C43.6878 16.3354 43.848 16.5336 44.0547 16.6732C44.2613 16.8127 44.505 16.8873 44.7544 16.8873C44.9144 16.8873 45.0728 16.8565 45.2211 16.7965C45.8614 16.5385 46.1715 15.8102 45.9134 15.17ZM46.5925 19.697C46.36 19.4645 46.0375 19.3307 45.7088 19.3307C45.38 19.3307 45.0575 19.4645 44.825 19.697C44.5909 19.9316 44.4593 20.2493 44.4588 20.5807C44.4588 20.9107 44.5913 21.232 44.825 21.4645C45.0575 21.6982 45.3787 21.8307 45.7088 21.8307C46.0375 21.8307 46.36 21.6982 46.5925 21.4645C46.8262 21.2296 46.9578 20.912 46.9588 20.5807C46.9588 20.252 46.825 19.9295 46.5925 19.697ZM58.5537 6.22547C58.0655 5.73734 57.2743 5.73734 56.7859 6.22547L54.457 8.55434C53.9689 9.04247 53.9689 9.83397 54.457 10.3222C54.7011 10.5663 55.021 10.6883 55.341 10.6883C55.661 10.6883 55.9808 10.5663 56.2249 10.3222L58.5537 7.99334C59.0419 7.50522 59.0419 6.71372 58.5537 6.22547ZM58.5536 33.1691L56.2249 30.8402C55.7368 30.3521 54.9455 30.3521 54.457 30.8402C53.9689 31.3283 53.9689 32.1198 54.457 32.608L56.7859 34.9368C57.03 35.181 57.3499 35.303 57.6698 35.303C57.9896 35.303 58.3095 35.1808 58.5536 34.9368C59.0417 34.4487 59.0417 33.6572 58.5536 33.1691ZM63.25 19.3312H59.9564C59.2661 19.3312 58.7064 19.8908 58.7064 20.5812C58.7064 21.2716 59.2661 21.8312 59.9564 21.8312H63.25C63.9403 21.8312 64.5 21.2716 64.5 20.5812C64.5 19.8908 63.9403 19.3312 63.25 19.3312ZM10.5429 8.55447L8.21413 6.22559C7.72588 5.73747 6.93463 5.73747 6.44625 6.22559C5.95813 6.71372 5.95813 7.50522 6.44625 7.99347L8.77512 10.3223C8.89106 10.4386 9.02884 10.5308 9.18052 10.5936C9.33221 10.6565 9.49482 10.6887 9.659 10.6885C9.82318 10.6887 9.98579 10.6565 10.1375 10.5936C10.2892 10.5308 10.4269 10.4386 10.5429 10.3223C11.031 9.83409 11.031 9.04272 10.5429 8.55447ZM10.5429 30.8401C10.0548 30.3518 9.26337 30.3518 8.77512 30.8401L6.44625 33.1691C5.95813 33.6572 5.95813 34.4487 6.44625 34.9368C6.56219 35.0531 6.69996 35.1453 6.85165 35.2081C7.00333 35.271 7.16594 35.3032 7.33012 35.303C7.4943 35.3032 7.6569 35.2709 7.80859 35.2081C7.96027 35.1453 8.09804 35.0531 8.214 34.9368L10.5429 32.608C11.031 32.1197 11.031 31.3283 10.5429 30.8401ZM5.04362 19.3312H1.75C1.05975 19.3312 0.5 19.8908 0.5 20.5812C0.5 21.2716 1.05975 21.8312 1.75 21.8312H5.04362C5.73387 21.8312 6.29362 21.2716 6.29362 20.5812C6.29362 19.8908 5.73387 19.3312 5.04362 19.3312Z" fill="#3A3B3E"/>
</g>
<defs>
<clipPath id="clip0_7336_7718">
<rect width="64" height="64" fill="white" transform="translate(0.5)"/>
</clipPath>
</defs>
</svg>
