<svg width="43" height="69" viewBox="0 0 43 69" fill="none" xmlns="http://www.w3.org/2000/svg">
<g clip-path="url(#clip0_7336_6550)">
<g clip-path="url(#clip1_7336_6550)">
<path d="M20.8598 42.0642C20.2924 42.0642 19.8281 41.6 19.8281 41.0326V28.0082C19.8281 27.4408 20.2924 26.9766 20.8598 26.9766C21.4272 26.9766 21.8914 27.4408 21.8914 28.0082V41.0455C21.8914 41.6 21.4272 42.0642 20.8598 42.0642Z" fill="white"/>
<path d="M20.8598 42.3086C20.2924 42.3086 19.8281 41.8443 19.8281 41.2769V38.1046C19.8281 35.5642 21.8398 33.501 24.3157 33.501C26.7917 33.501 28.8033 35.5642 28.8033 38.1046C28.8033 38.672 28.3391 39.1363 27.7717 39.1363C27.2043 39.1363 26.7401 38.672 26.7401 38.1046C26.7401 36.699 25.6569 35.5642 24.3157 35.5642C22.9746 35.5642 21.8914 36.699 21.8914 38.1046V41.2769C21.8914 41.8443 21.4272 42.3086 20.8598 42.3086Z" fill="white"/>
<path d="M14.993 32.6632H12.9297V21.2765C12.9297 18.7361 14.9414 16.6729 17.4173 16.6729C19.8932 16.6729 21.9049 18.7361 21.9049 21.2765H19.8416C19.8416 19.8709 18.7584 18.7361 17.4173 18.7361C16.0762 18.7361 14.993 19.8709 14.993 21.2765V32.6632Z" fill="white"/>
<path d="M21.8914 21.2891H19.8281V32.3791H21.8914V21.2891Z" fill="white"/>
<path d="M34.6701 42.3086C34.1027 42.3086 33.6385 41.8443 33.6385 41.2769V38.1046C33.6385 36.699 32.5553 35.5642 31.2142 35.5642C29.873 35.5642 28.7898 36.699 28.7898 38.1046V41.2769C28.7898 41.8443 28.3256 42.3086 27.7582 42.3086C27.1908 42.3086 26.7266 41.8443 26.7266 41.2769V38.1046C26.7266 35.5642 28.7382 33.501 31.2142 33.501C33.6901 33.501 35.7018 35.5642 35.7018 38.1046V41.2769C35.7018 41.8443 35.2375 42.3086 34.6701 42.3086Z" fill="white"/>
<path d="M42.6022 39.549H40.5389C40.5389 38.1434 39.4557 37.0086 38.1146 37.0086C36.7734 37.0086 35.6902 38.1434 35.6902 39.549H33.627C33.627 37.0086 35.6386 34.9453 38.1146 34.9453C40.6034 34.9453 42.6022 37.0086 42.6022 39.549Z" fill="white"/>
<path d="M13.6908 68.4997C13.4458 68.4997 13.2008 68.4094 13.0203 68.2547C12.7882 68.0612 12.6592 67.7775 12.6592 67.468C12.6592 65.5208 11.9371 63.6381 10.6475 62.1809L8.61005 59.8984C7.75895 58.9571 7.11418 57.8609 6.67573 56.6746L0.640675 40.1555C0.550407 39.8589 -0.0943645 37.6667 1.15649 36.2482C1.95601 35.3455 3.24555 35.036 4.97354 35.3584C8.42951 35.9903 11.3052 40.2458 12.9171 43.2246L12.93 32.6504H14.9933L14.9804 44.1531C14.9804 44.5271 14.8643 44.901 14.6451 45.2105C14.2711 45.7392 13.6522 46.0358 13.0203 45.9843C12.3755 45.9327 11.8081 45.5716 11.5244 44.9913C9.29351 40.6069 6.71442 37.757 4.61247 37.383C3.6582 37.2154 2.98764 37.2927 2.70394 37.6022C2.31708 38.0407 2.45893 39.0723 2.58788 39.4721L8.61005 55.9395C8.95822 56.8938 9.47404 57.7449 10.1446 58.5057L12.1821 60.7882C13.5877 62.3615 14.4517 64.3216 14.6709 66.3977C18.0753 66.3719 28.4948 66.3848 37.715 66.4106C37.8311 65.0695 38.1793 63.4962 38.7853 62.3228L39.6493 60.6464C40.2296 59.5245 40.5391 58.2607 40.5391 56.997V39.5494H42.6024V57.0227C42.6024 58.6218 42.2155 60.2079 41.4805 61.6264L40.6165 63.3028C40.0878 64.3087 39.7267 66.0366 39.7267 67.4809C39.7267 67.7517 39.6235 68.0225 39.4172 68.216C39.2238 68.4094 38.9659 68.5126 38.6951 68.5126C29.1267 68.4868 14.6322 68.461 13.794 68.5126C13.7553 68.4997 13.7295 68.4997 13.6908 68.4997Z" fill="white"/>
<path d="M24.8838 22.4631L23.1171 21.4057C23.7232 20.3869 24.0456 19.2006 24.0456 18.0013C24.0456 14.339 21.0667 11.3601 17.4044 11.3601C13.7421 11.3601 10.7633 14.339 10.7633 18.0013C10.7633 19.0458 10.9954 20.0388 11.4596 20.9543L9.61557 21.8699C9.00949 20.6577 8.71289 19.3553 8.71289 18.0013C8.71289 13.2042 12.6202 9.29688 17.4173 9.29688C22.2144 9.29688 26.1217 13.2042 26.1217 18.0013C26.1088 19.5745 25.6833 21.122 24.8838 22.4631Z" fill="white"/>
<path d="M9.07487 27.9697C5.96707 25.4422 4.1875 21.7025 4.1875 17.7049C4.1875 10.4319 10.1194 4.5 17.4053 4.5C24.6912 4.5 30.6231 10.4319 30.6231 17.7178C30.6231 21.7154 28.8436 25.4551 25.7358 27.9826L24.4333 26.3835C27.0511 24.2558 28.5599 21.0964 28.5599 17.7178C28.5599 11.5667 23.5564 6.56327 17.4053 6.56327C11.2542 6.56327 6.25077 11.5667 6.25077 17.7178C6.25077 21.0964 7.75953 24.2429 10.3773 26.3706L9.07487 27.9697Z" fill="white"/>
</g>
</g>
<defs>
<clipPath id="clip0_7336_6550">
<rect width="42" height="68" fill="white" transform="translate(0.5 0.5)"/>
</clipPath>
<clipPath id="clip1_7336_6550">
<rect width="42.2067" height="64" fill="white" transform="translate(0.396484 4.5)"/>
</clipPath>
</defs>
</svg>
