<svg width="65" height="64" viewBox="0 0 65 64" fill="none" xmlns="http://www.w3.org/2000/svg">
<g clip-path="url(#clip0_7336_7650)">
<path d="M46.766 58.6405C39.4924 58.6405 33.5723 52.7204 33.5723 45.4467C33.5723 38.173 39.4924 32.2529 46.766 32.2529C54.0397 32.2529 59.9598 38.173 59.9598 45.4467C59.9598 52.7204 54.0397 58.6405 46.766 58.6405ZM46.766 34.4405C40.6955 34.4405 35.7598 39.3762 35.7598 45.4467C35.7598 51.5172 40.6955 56.4529 46.766 56.4529C52.8365 56.4529 57.7722 51.5172 57.7722 45.4467C57.7722 39.3762 52.8365 34.4405 46.766 34.4405Z" fill="#3A3B3E"/>
<path d="M47.8594 27.7275H45.6719V38.9798H47.8594V27.7275Z" fill="#3A3B3E"/>
<path d="M40.2992 44.3535H29.0469V46.5411H40.2992V44.3535Z" fill="#3A3B3E"/>
<path d="M47.8594 51.9277H45.6719V63.18H47.8594V51.9277Z" fill="#3A3B3E"/>
<path d="M64.4984 44.3535H53.2461V46.5411H64.4984V44.3535Z" fill="#3A3B3E"/>
<path d="M1.27932 48.5503L0.5 46.4995L8.92213 43.2728C9.98857 42.8626 10.973 42.2884 11.848 41.5774C13.1742 40.4973 14.2133 39.0891 14.8833 37.5031L15.7446 35.4523C13.4887 32.417 12.1898 28.2606 12.1898 23.9539C12.1898 23.5984 12.2035 23.2429 12.2172 22.9421C9.8245 19.4147 8.27953 15.1079 8.27953 11.8675C8.27953 5.31852 14.6372 0 22.444 0C28.1044 0 33.2588 2.88485 35.4737 7.21897C38.4133 8.36744 40.4094 11.8129 40.4094 15.7915C40.4094 19.1686 38.9602 22.2038 36.6495 23.7351C36.6495 23.8035 36.6495 23.8718 36.6495 23.9539C36.6495 28.2743 35.3643 32.417 33.0947 35.4659L33.9561 37.5168L31.9326 38.3645L30.8251 35.7257C30.6747 35.3565 30.7294 34.919 30.9892 34.6046C33.1905 31.9111 34.4483 28.0282 34.4483 23.9539C34.4483 23.7761 34.4346 23.612 34.4346 23.448L34.421 23.1745C34.4073 22.7507 34.6397 22.3542 35.0089 22.1628C36.923 21.1784 38.2082 18.6217 38.2082 15.7915C38.2082 12.6195 36.5812 9.81671 34.3526 9.16044C34.0518 9.06473 33.8057 8.84597 33.669 8.55886C31.9599 4.74429 27.4481 2.18757 22.444 2.18757C15.8403 2.18757 10.4671 6.53536 10.4671 11.8675C10.4671 14.7387 11.9711 18.7994 14.227 21.985C14.3637 22.1901 14.4457 22.4362 14.4184 22.6823C14.391 23.0241 14.3774 23.489 14.3774 23.9402C14.3774 28.0145 15.6352 31.8975 17.8365 34.5772C18.0962 34.8917 18.1509 35.3155 18.0005 35.6984L16.8931 38.3371C16.1001 40.2376 14.8286 41.9466 13.2289 43.2591C12.1761 44.1342 10.9866 44.8178 9.70145 45.31L1.27932 48.5503Z" fill="#3A3B3E"/>
</g>
<defs>
<clipPath id="clip0_7336_7650">
<rect width="64" height="63.166" fill="white" transform="translate(0.5)"/>
</clipPath>
</defs>
</svg>
