<svg width="65" height="64" viewBox="0 0 65 64" fill="none" xmlns="http://www.w3.org/2000/svg">
<path d="M49.8784 42.5535C54.197 38.1545 56.8653 32.13 56.8653 25.493C56.8652 12.0565 45.9337 1.125 32.497 1.125C19.0604 1.125 8.12891 12.0565 8.12891 25.4931C8.12891 32.13 10.7972 38.1545 15.1158 42.5536L8.60416 53.832C8.51998 53.9778 8.47968 54.1448 8.48807 54.313C8.49646 54.4812 8.5532 54.6434 8.65147 54.7801C8.74974 54.9168 8.88538 55.0223 9.0421 55.0838C9.19882 55.1454 9.36998 55.1604 9.53503 55.1271L18.2987 53.3581L21.1488 61.8322C21.2025 61.9919 21.301 62.1326 21.4327 62.2376C21.5644 62.3425 21.7236 62.4073 21.8911 62.424C22.0587 62.4408 22.2275 62.4088 22.3774 62.332C22.5272 62.2551 22.6517 62.1367 22.7359 61.9909L29.8239 49.7139C30.702 49.8101 31.5937 49.8611 32.497 49.8611C33.4004 49.8611 34.2919 49.8101 35.17 49.7139L42.5159 62.4375C42.6001 62.5833 42.7246 62.7018 42.8744 62.7786C43.0243 62.8554 43.1931 62.8874 43.3607 62.8706C43.5282 62.8539 43.6874 62.7892 43.8191 62.6842C43.9508 62.5792 44.0494 62.4385 44.103 62.2789L46.953 53.8047L55.7168 55.5736C55.8818 55.6069 56.053 55.5919 56.2097 55.5303C56.3664 55.4688 56.5021 55.3633 56.6003 55.2266C56.6986 55.0899 56.7553 54.9277 56.7637 54.7595C56.7721 54.5913 56.7318 54.4243 56.6477 54.2785L49.8784 42.5535ZM22.1895 59.4372L19.7114 52.0689C19.6434 51.8669 19.504 51.6967 19.3195 51.5902C19.1349 51.4836 18.9178 51.4481 18.7089 51.4901L11.0889 53.0283L16.4223 43.7907C19.635 46.6166 23.5948 48.6113 27.9633 49.4366L22.1895 59.4372ZM9.87891 25.4931C9.87891 13.0214 20.0254 2.875 32.497 2.875C44.9687 2.875 55.1152 13.0214 55.1152 25.4931C55.1152 37.9649 44.9687 48.1113 32.497 48.1113C20.0254 48.1113 9.87891 37.9648 9.87891 25.4931ZM46.5428 51.9367C46.3339 51.8946 46.1168 51.9302 45.9322 52.0367C45.7476 52.1433 45.6083 52.3135 45.5403 52.5155L43.0623 59.8838L37.0305 49.4365C41.399 48.6111 45.359 46.6165 48.5718 43.7906L54.163 53.4748L46.5428 51.9367ZM32.497 7.39237C22.5163 7.39237 14.3963 15.5123 14.3963 25.4931C14.3963 35.474 22.5163 43.5938 32.497 43.5938C42.4778 43.5938 50.5978 35.4739 50.5978 25.493C50.5978 15.5121 42.4778 7.39237 32.497 7.39237ZM32.497 41.8438C23.4812 41.8438 16.1463 34.5089 16.1463 25.493C16.1463 16.4771 23.4812 9.14237 32.497 9.14237C41.5129 9.14237 48.8478 16.4773 48.8478 25.4931C48.8478 34.509 41.5129 41.8438 32.497 41.8438ZM44.2667 22.7671C44.2123 22.6001 44.109 22.4532 43.9701 22.3457C43.8313 22.2381 43.6632 22.1749 43.4879 22.1641L36.0438 21.7095L33.3113 14.7703C33.2469 14.6068 33.1347 14.4666 32.9895 14.3677C32.8443 14.2689 32.6727 14.216 32.497 14.216C32.3214 14.216 32.1498 14.2689 32.0045 14.3677C31.8593 14.4666 31.7472 14.6068 31.6828 14.7703L28.9503 21.7095L21.5062 22.1641C21.3308 22.1748 21.1627 22.2381 21.0238 22.3456C20.8849 22.4532 20.7816 22.6001 20.7273 22.7671C20.673 22.9342 20.6703 23.1138 20.7195 23.2824C20.7687 23.4511 20.8675 23.601 21.003 23.7127L26.7582 28.456L24.8903 35.6761C24.8463 35.8462 24.8545 36.0256 24.9138 36.1909C24.9732 36.3562 25.0809 36.4999 25.223 36.6032C25.3652 36.7064 25.5351 36.7645 25.7106 36.7699C25.8862 36.7752 26.0594 36.7276 26.2075 36.6333L32.497 32.6254L38.7865 36.6331C38.9346 36.7277 39.1078 36.7754 39.2834 36.77C39.459 36.7647 39.629 36.7065 39.771 36.6031C39.9132 36.4999 40.021 36.3562 40.0803 36.1908C40.1397 36.0255 40.1478 35.8461 40.1038 35.676L38.2359 28.4559L43.991 23.7126C44.1266 23.6009 44.2254 23.451 44.2746 23.2824C44.3238 23.1137 44.321 22.9342 44.2667 22.7671ZM36.6925 27.4601C36.564 27.5661 36.4683 27.7065 36.4169 27.865C36.3654 28.0234 36.3602 28.1932 36.4019 28.3545L37.853 33.9634L32.9673 30.85C32.8268 30.7604 32.6637 30.7127 32.497 30.7127C32.3304 30.7127 32.1672 30.7604 32.0268 30.85L27.1409 33.9634L28.592 28.3545C28.6337 28.1932 28.6285 28.0234 28.577 27.865C28.5256 27.7065 28.4299 27.5661 28.3014 27.4601L23.8305 23.7754L29.6134 23.4223C29.7797 23.4121 29.9396 23.3547 30.0744 23.2568C30.2092 23.1589 30.3132 23.0245 30.3743 22.8695L32.497 17.479L34.6197 22.8696C34.6807 23.0246 34.7847 23.159 34.9195 23.2569C35.0543 23.3548 35.2142 23.4122 35.3805 23.4224L41.1634 23.7755L36.6925 27.4601Z" fill="#3A3B3E"/>
</svg>
