<svg width="65" height="48" viewBox="0 0 65 48" fill="none" xmlns="http://www.w3.org/2000/svg">
<g clip-path="url(#clip0_7336_6520)">
<path d="M7.72569 44.8418C7.59384 44.8418 7.47518 44.8154 7.35651 44.7758C7.09281 44.6704 6.88185 44.4726 6.76319 44.2221L0.592605 30.5492C0.47394 30.2987 0.47394 30.0086 0.566235 29.7449C0.65853 29.4812 0.86949 29.2703 1.12 29.1516L4.81181 27.4903C5.33921 27.253 5.97209 27.4903 6.20942 28.0177L6.36764 28.3605L11.7867 26.8047C12.2877 26.6596 12.8283 26.9102 13.0392 27.3848L17.3771 36.9835C17.5881 37.4582 17.4299 38.0251 16.9816 38.302L12.235 41.3346L12.3932 41.6774C12.5118 41.9279 12.5118 42.2179 12.4196 42.4816C12.3141 42.7453 12.1163 42.9563 11.8658 43.075L8.17398 44.7363C8.01576 44.8154 7.87073 44.8418 7.72569 44.8418ZM2.95272 30.6415L8.25309 42.3894L10.0199 41.5851L9.92759 41.3741C9.71663 40.8994 9.87485 40.3325 10.3231 40.0556L15.0697 37.0231L11.4834 29.0857L6.06438 30.6415C5.56335 30.7866 5.02277 30.536 4.81181 30.0614L4.71951 29.8504L2.95272 30.6415Z" fill="white"/>
<path d="M15.7955 38.6051L10.7852 27.4901L38.9747 5.53711L50.9071 31.9862L15.7955 38.6051ZM13.3826 28.1362L17.0348 36.2318L47.8878 30.4172L38.144 8.84654L13.3826 28.1362Z" fill="white"/>
<path d="M51.2759 33.0408C50.8672 33.0408 50.4584 32.9617 50.0629 32.8166C49.2058 32.487 48.5334 31.8541 48.151 31.0235L37.8667 8.23978C37.0888 6.52573 37.8536 4.49524 39.5808 3.71733C41.2948 2.93941 43.3253 3.70414 44.1033 5.43138L54.3876 28.2151C55.1655 29.9291 54.4007 31.9596 52.6735 32.7375C52.2252 32.9353 51.7506 33.0408 51.2759 33.0408ZM40.9916 5.53686C40.807 5.53686 40.6356 5.57641 40.451 5.65552C39.7918 5.95878 39.5017 6.72351 39.7918 7.38276L50.0761 30.1664C50.2211 30.4829 50.4848 30.7334 50.8012 30.8521C51.1309 30.9707 51.4869 30.9707 51.8033 30.8257C52.4625 30.5356 52.7526 29.7577 52.4625 29.0985L42.1782 6.30159C41.9673 5.81374 41.4926 5.53686 40.9916 5.53686Z" fill="white"/>
<path d="M6.74321 29.189L4.82031 30.0566L7.12508 35.1643L9.04798 34.2967L6.74321 29.189Z" fill="white"/>
<path d="M20.6607 47.9007C20.2652 47.9007 19.8696 47.6634 19.6982 47.281L15.4395 37.8537L17.3645 36.9835L21.1881 45.4483L24.313 44.0375L21.0431 36.7989L22.9681 35.9287L26.6731 44.1298C26.9104 44.6572 26.6731 45.2901 26.1457 45.5274L21.0958 47.8084C20.9508 47.8743 20.8057 47.9007 20.6607 47.9007Z" fill="white"/>
<path d="M34.9597 13.3163L25.752 20.4844L27.0479 22.1491L36.2557 14.981L34.9597 13.3163Z" fill="white"/>
<path d="M60.7054 10.9058L55.7539 13.1406L56.6218 15.0635L61.5733 12.8287L60.7054 10.9058Z" fill="white"/>
<path d="M52.2227 0.495414L50.3008 5.57617L52.2739 6.32255L54.1958 1.24179L52.2227 0.495414Z" fill="white"/>
<path d="M59.4259 22.18L58.6797 24.1533L63.761 26.0747L64.5072 24.1014L59.4259 22.18Z" fill="white"/>
</g>
<defs>
<clipPath id="clip0_7336_6520">
<rect width="64" height="47.4001" fill="white" transform="translate(0.5 0.5)"/>
</clipPath>
</defs>
</svg>
