<svg width="60" height="64" viewBox="0 0 60 64" fill="none" xmlns="http://www.w3.org/2000/svg">
<g clip-path="url(#clip0_7210_2935)">
<path d="M19.4548 53.6213H17.1126V50.1812C17.1126 49.6688 16.9662 49.1565 16.7027 48.7173L13.4968 43.4182C12.3843 41.5883 12.5307 39.2315 13.8482 37.5334L15.9708 34.7375C16.366 34.2251 16.5856 33.5956 16.5856 32.9662V30.6094H18.9278V32.9662C18.9278 34.1226 18.5325 35.2498 17.8299 36.1574L15.7073 38.9534C14.9753 39.8903 14.8875 41.1931 15.5023 42.1885L18.7082 47.4877C19.1913 48.2928 19.4548 49.2297 19.4548 50.1666V53.6213Z" fill="#5EDDA0"/>
<path d="M7.21683 34.0624C5.88472 34.0624 4.55261 33.5647 3.55718 32.5546L1.52242 30.5198C0.541628 29.539 0 28.2362 0 26.8455V25.3524C0 23.9617 0.541628 22.6589 1.52242 21.6927L15.5316 7.68359L17.1857 9.33776L3.17658 23.3469C2.64959 23.8739 2.34218 24.6058 2.34218 25.3524V26.8455C2.34218 27.6067 2.63495 28.324 3.17658 28.851L5.21134 30.8858C6.30924 31.9837 8.10979 31.9983 9.20769 30.9004C10.1885 29.9489 11.4767 29.4219 12.8381 29.4219H22.0604C25.9982 29.4219 27.0229 23.5372 27.0229 23.4787L29.3358 23.8593C29.2772 24.1813 27.989 31.7641 22.0604 31.7641H12.8381C12.0915 31.7641 11.3888 32.0569 10.8472 32.5692C9.85178 33.5647 8.53431 34.0624 7.21683 34.0624Z" fill="#5EDDA0"/>
<path d="M45.0723 21.8542H42.7301V19.5706C42.7301 19.4388 42.7155 19.3071 42.7008 19.19C42.5105 17.8432 41.4126 12.9393 35.2498 6.77641C28.8381 0.364703 15.634 1.6529 10.4081 5.86882C10.3641 5.8981 10.3641 5.94201 10.3641 5.95665C10.3641 6.00057 10.3788 6.01521 10.3934 6.02984L14.6093 10.2458L12.9552 11.8999L8.75389 7.68401C8.27082 7.20093 8.00732 6.52756 8.0366 5.8249C8.06588 5.12225 8.40256 4.47815 8.94419 4.03899C14.785 -0.689277 29.4382 -2.37272 36.9039 5.10761C43.5791 11.7828 44.7941 17.3162 45.0137 18.8533C45.043 19.0875 45.0576 19.3217 45.0576 19.5559V21.8542H45.0723Z" fill="#5EDDA0"/>
<path d="M37.0942 17.9753C35.7621 15.4867 33.8737 12.9835 31.4583 10.5682C29.6431 8.75299 27.2424 7.46479 24.3147 6.7475L24.871 4.47852C28.2086 5.29828 30.9899 6.79142 33.1125 8.91401C35.6889 11.4904 37.7237 14.1693 39.1582 16.8774L37.0942 17.9753Z" fill="#5EDDA0"/>
<path d="M15.1071 58.2617H12.7649V56.1538C12.7649 54.119 14.4191 52.4648 16.4538 52.4648H34.1519V54.807H16.4538C15.7073 54.807 15.1071 55.4072 15.1071 56.1538V58.2617Z" fill="#5EDDA0"/>
<path d="M10.9935 63.9407H8.65137V60.7788C8.65137 58.744 10.6422 57.0898 13.0869 57.0898H32.3659V59.432H13.0869C11.8572 59.432 10.9935 60.1493 10.9935 60.7788V63.9407Z" fill="#5EDDA0"/>
<path d="M54.8948 59.7821C50.6642 46.0072 51.0302 40.9569 51.0448 40.752L53.3723 40.9423L52.2013 40.8398L53.3723 40.9276C53.3723 40.9715 53.0649 45.8755 57.1198 59.0795L54.8948 59.7821Z" fill="#5EDDA0"/>
<path d="M59.462 63.9981H57.1198V61.6266C57.1198 61.0411 56.7978 60.6019 56.5197 60.6019H45.204V58.2598H56.5197C58.1445 58.2598 59.462 59.7675 59.462 61.6266V63.9981Z" fill="#5EDDA0"/>
<path d="M38.236 59.7821L35.9963 59.0941C40.0951 45.7437 39.7585 40.9862 39.7438 40.9423L42.0714 40.752C42.1006 40.9569 42.4666 46.0072 38.236 59.7821Z" fill="#5EDDA0"/>
<path d="M36.011 63.9981H33.6688V61.6266C33.6688 59.7675 34.9863 58.2598 36.6112 58.2598H45.1894V60.6019H36.6112C36.333 60.6019 36.011 61.0557 36.011 61.6266V63.9981Z" fill="#5EDDA0"/>
<path d="M54.0165 42.0094H39.1144C37.3431 42.0094 35.9085 40.5748 35.9085 38.8035C35.9085 37.0322 37.3431 35.5977 39.1144 35.5977H54.0165C55.7878 35.5977 57.2224 37.0322 57.2224 38.8035C57.237 40.5748 55.7878 42.0094 54.0165 42.0094ZM39.1144 37.9398C38.6313 37.9398 38.2507 38.3351 38.2507 38.8035C38.2507 39.2866 38.646 39.6672 39.1144 39.6672H54.0165C54.4996 39.6672 54.8802 39.2719 54.8802 38.8035C54.8802 38.3204 54.4849 37.9398 54.0165 37.9398H39.1144Z" fill="#5EDDA0"/>
<path d="M52.1427 37.6484L50.5764 35.9064C51.8646 34.7646 52.5965 33.125 52.5965 31.3977C52.5965 28.0601 49.8884 25.3519 46.5508 25.3519C43.2132 25.3519 40.505 28.0601 40.505 31.3977C40.505 33.1104 41.2369 34.7646 42.5251 35.9064L40.9881 37.6484C39.2022 36.0528 38.1921 33.7838 38.1921 31.3977C38.1921 26.7719 41.9542 23.0098 46.58 23.0098C51.2058 23.0098 54.968 26.7719 54.968 31.3977C54.9533 33.7691 53.9286 36.0528 52.1427 37.6484Z" fill="#5EDDA0"/>
</g>
<defs>
<clipPath id="clip0_7210_2935">
<rect width="59.462" height="64" fill="white"/>
</clipPath>
</defs>
</svg>
