<svg width="65" height="64" viewBox="0 0 65 64" fill="none" xmlns="http://www.w3.org/2000/svg">
<path d="M47.5 42.616V54C47.5 55.3261 46.9732 56.5979 46.0355 57.5355C45.0979 58.4732 43.8261 59 42.5 59H18.5C18.3448 59 18.1916 58.9639 18.0528 58.8944C17.9139 58.825 17.7931 58.7242 17.7 58.6L5.7 42.6C5.57018 42.4269 5.5 42.2164 5.5 42V10C5.5 8.67392 6.02678 7.40215 6.96447 6.46447C7.90215 5.52678 9.17392 5 10.5 5H42.5C43.8261 5 45.0979 5.52678 46.0355 6.46447C46.9732 7.40215 47.5 8.67392 47.5 10V28.474L51.55 24.422C52.1128 23.8601 52.8757 23.5445 53.671 23.5445C54.4663 23.5445 55.2292 23.8601 55.792 24.422L58.622 27.252C59.1839 27.8148 59.4995 28.5777 59.4995 29.373C59.4995 30.1683 59.1839 30.9312 58.622 31.494L47.5 42.616ZM45.502 30.47L45.5 30.404V10C45.4984 9.20484 45.1818 8.4427 44.6196 7.88043C44.0573 7.31817 43.2952 7.00159 42.5 7H10.5C9.70484 7.00159 8.9427 7.31817 8.38043 7.88043C7.81817 8.4427 7.50159 9.20484 7.5 10V41H14.5C15.8261 41 17.0979 41.5268 18.0355 42.4645C18.9732 43.4021 19.5 44.6739 19.5 46V57H42.5C43.2957 57 44.0587 56.6839 44.6213 56.1213C45.1839 55.5587 45.5 54.7957 45.5 54V44.616L38.822 51.292C38.6828 51.4317 38.5053 51.5271 38.312 51.566L31.24 52.98C31.0785 53.0132 30.9114 53.0057 30.7535 52.9584C30.5956 52.911 30.4519 52.8252 30.3354 52.7086C30.2188 52.5921 30.133 52.4484 30.0856 52.2905C30.0383 52.1326 30.0308 51.9655 30.064 51.804L31.478 44.732C31.5169 44.5387 31.6123 44.3612 31.752 44.222L45.502 30.47ZM17.5 55V46C17.4984 45.2048 17.1818 44.4427 16.6196 43.8804C16.0573 43.3182 15.2952 43.0016 14.5 43H8.5L17.5 55ZM32.318 50.726L36.086 49.972L33.072 46.958L32.318 50.726ZM33.872 44.928L38.116 49.172L53.672 33.616L49.428 29.372L33.872 44.928ZM36.5 31H16.5C16.2348 31 15.9804 31.1054 15.7929 31.2929C15.6054 31.4804 15.5 31.7348 15.5 32C15.5 32.2652 15.6054 32.5196 15.7929 32.7071C15.9804 32.8946 16.2348 33 16.5 33H36.5C36.7652 33 37.0196 32.8946 37.2071 32.7071C37.3946 32.5196 37.5 32.2652 37.5 32C37.5 31.7348 37.3946 31.4804 37.2071 31.2929C37.0196 31.1054 36.7652 31 36.5 31ZM55.086 32.202L57.208 30.08C57.3955 29.8925 57.5008 29.6382 57.5008 29.373C57.5008 29.1078 57.3955 28.8535 57.208 28.666L54.378 25.838C54.2853 25.7449 54.1751 25.6711 54.0538 25.6207C53.9324 25.5703 53.8024 25.5444 53.671 25.5444C53.5396 25.5444 53.4095 25.5703 53.2882 25.6207C53.1669 25.6711 53.0567 25.7449 52.964 25.838L50.844 27.958L55.086 32.202ZM36.5 23H16.5C16.2348 23 15.9804 23.1054 15.7929 23.2929C15.6054 23.4804 15.5 23.7348 15.5 24C15.5 24.2652 15.6054 24.5196 15.7929 24.7071C15.9804 24.8946 16.2348 25 16.5 25H36.5C36.7652 25 37.0196 24.8946 37.2071 24.7071C37.3946 24.5196 37.5 24.2652 37.5 24C37.5 23.7348 37.3946 23.4804 37.2071 23.2929C37.0196 23.1054 36.7652 23 36.5 23ZM30.5 15H16.5C16.2348 15 15.9804 15.1054 15.7929 15.2929C15.6054 15.4804 15.5 15.7348 15.5 16C15.5 16.2652 15.6054 16.5196 15.7929 16.7071C15.9804 16.8946 16.2348 17 16.5 17H30.5C30.7652 17 31.0196 16.8946 31.2071 16.7071C31.3946 16.5196 31.5 16.2652 31.5 16C31.5 15.7348 31.3946 15.4804 31.2071 15.2929C31.0196 15.1054 30.7652 15 30.5 15Z" fill="#3A3B3E"/>
</svg>
