<svg width="64" height="64" viewBox="0 0 64 64" fill="none" xmlns="http://www.w3.org/2000/svg">
<g clip-path="url(#clip0_7210_2974)">
<path d="M46.267 58.6395C38.9934 58.6395 33.0733 52.7194 33.0733 45.4457C33.0733 38.1721 38.9934 32.252 46.267 32.252C53.5407 32.252 59.4608 38.1721 59.4608 45.4457C59.4608 52.7194 53.5407 58.6395 46.267 58.6395ZM46.267 34.4395C40.1965 34.4395 35.2608 39.3752 35.2608 45.4457C35.2608 51.5162 40.1965 56.4519 46.267 56.4519C52.3375 56.4519 57.2732 51.5162 57.2732 45.4457C57.2732 39.3752 52.3375 34.4395 46.267 34.4395Z" fill="#A0A3AA"/>
<path d="M47.3608 27.7266H45.1732V38.9789H47.3608V27.7266Z" fill="#A0A3AA"/>
<path d="M39.8 44.3516H28.5477V46.5391H39.8V44.3516Z" fill="#A0A3AA"/>
<path d="M47.3608 51.9258H45.1732V63.1781H47.3608V51.9258Z" fill="#A0A3AA"/>
<path d="M64 44.3516H52.7477V46.5391H64V44.3516Z" fill="#A0A3AA"/>
<path d="M0.779321 48.5503L0 46.4995L8.42213 43.2728C9.48857 42.8626 10.473 42.2884 11.348 41.5774C12.6742 40.4973 13.7133 39.0891 14.3833 37.5031L15.2446 35.4523C12.9887 32.417 11.6898 28.2606 11.6898 23.9539C11.6898 23.5984 11.7035 23.2429 11.7172 22.9421C9.3245 19.4147 7.77953 15.1079 7.77953 11.8675C7.77953 5.31852 14.1372 0 21.944 0C27.6044 0 32.7588 2.88485 34.9737 7.21897C37.9133 8.36744 39.9094 11.8129 39.9094 15.7915C39.9094 19.1686 38.4602 22.2038 36.1495 23.7351C36.1495 23.8035 36.1495 23.8718 36.1495 23.9539C36.1495 28.2743 34.8643 32.417 32.5947 35.4659L33.4561 37.5168L31.4326 38.3645L30.3251 35.7257C30.1747 35.3565 30.2294 34.919 30.4892 34.6046C32.6905 31.9111 33.9483 28.0282 33.9483 23.9539C33.9483 23.7761 33.9346 23.612 33.9346 23.448L33.921 23.1745C33.9073 22.7507 34.1397 22.3542 34.5089 22.1628C36.423 21.1784 37.7082 18.6217 37.7082 15.7915C37.7082 12.6195 36.0812 9.81671 33.8526 9.16044C33.5518 9.06473 33.3057 8.84597 33.169 8.55886C31.4599 4.74429 26.9481 2.18757 21.944 2.18757C15.3403 2.18757 9.9671 6.53536 9.9671 11.8675C9.9671 14.7387 11.4711 18.7994 13.727 21.985C13.8637 22.1901 13.9457 22.4362 13.9184 22.6823C13.891 23.0241 13.8774 23.489 13.8774 23.9402C13.8774 28.0145 15.1352 31.8975 17.3365 34.5772C17.5962 34.8917 17.6509 35.3155 17.5005 35.6984L16.3931 38.3371C15.6001 40.2376 14.3286 41.9466 12.7289 43.2591C11.6761 44.1342 10.4866 44.8178 9.20145 45.31L0.779321 48.5503Z" fill="#A0A3AA"/>
</g>
<defs>
<clipPath id="clip0_7210_2974">
<rect width="64" height="63.166" fill="white"/>
</clipPath>
</defs>
</svg>
