<svg width="65" height="64" viewBox="0 0 65 64" fill="none" xmlns="http://www.w3.org/2000/svg">
<g clip-path="url(#clip0_7336_7743)">
<path d="M62.8867 43.3203C47.3934 16.4937 40.22 2.94701 38.7534 4.41368C37.3662 3.56962 35.8222 3.01587 34.2148 2.78595C32.6074 2.55603 30.97 2.65472 29.4019 3.07605C27.8337 3.49738 26.3674 4.23259 25.0917 5.23715C23.816 6.24171 22.7574 7.49473 21.98 8.92034C19.9534 12.387 29.26 -3.71966 2.22004 43.1337C1.08923 45.0036 0.494221 47.1484 0.500042 49.3337C0.500042 61.587 16.7934 65.8937 22.8867 55.3337C23.8334 53.6803 19.4734 61.2537 32.5 38.667L42.1 55.3337C43.6913 58.0902 46.3125 60.1016 49.3868 60.9255C52.4612 61.7494 55.7369 61.3183 58.4934 59.727C61.2499 58.1357 63.2613 55.5146 64.0852 52.4402C64.9091 49.3659 64.478 46.0902 62.8867 43.3337V43.3203ZM12.5 58.667C10.8608 58.6688 9.25002 58.2389 7.82972 57.4205C6.40942 56.6021 5.22972 55.424 4.40931 54.0049C3.58891 52.5857 3.15673 50.9755 3.15628 49.3363C3.15582 47.6971 3.58709 46.0866 4.40671 44.667C4.44105 44.611 4.47221 44.5532 4.50004 44.4937C10.1134 35.227 24.7 41.5337 21.3534 52.147C20.7578 54.031 19.5797 55.6774 17.9887 56.8491C16.3977 58.0207 14.4759 58.6573 12.5 58.667ZM24.3534 47.467C24.075 45.6998 23.405 44.0172 22.3924 42.5424C21.3799 41.0676 20.0503 39.8378 18.5012 38.9431C16.952 38.0483 15.2224 37.5113 13.4389 37.3712C11.6554 37.2312 9.8632 37.4917 8.19338 38.1337L20.6467 16.5603C21.14 19.6803 22.0734 20.6403 30.9534 36.0403L24.3534 47.467ZM52.5 58.667C50.8622 58.6665 49.2533 58.235 47.835 57.4158C46.4167 56.5967 45.239 55.4188 44.42 54.0003C22.34 15.7603 23.1667 18.027 23.1667 14.667C23.1677 13.0434 23.5922 11.4482 24.3983 10.0389C25.2044 8.62958 26.3642 7.45491 27.7631 6.6309C29.162 5.8069 30.7517 5.36206 32.3751 5.34034C33.9986 5.31861 35.5996 5.72074 37.02 6.50701C39.8467 7.76034 39.42 8.00034 60.5 44.4937C61.3594 45.9105 61.826 47.5306 61.8519 49.1875C61.8779 50.8444 61.4622 52.4784 60.6477 53.9214C59.8332 55.3645 58.6491 56.5647 57.2172 57.3987C55.7853 58.2328 54.1571 58.6705 52.5 58.667Z" fill="#3A3B3E"/>
</g>
<defs>
<clipPath id="clip0_7336_7743">
<rect width="64" height="64" fill="white" transform="translate(0.5)"/>
</clipPath>
</defs>
</svg>
