<svg width="65" height="61" viewBox="0 0 65 61" fill="none" xmlns="http://www.w3.org/2000/svg">
<g clip-path="url(#clip0_7336_7674)">
<path d="M59.7366 41.29H57.6191V50.5671H59.7366V41.29Z" fill="#3A3B3E"/>
<path d="M7.30105 50.5802H5.18359V14.2394C5.18359 13.6571 5.66002 13.1807 6.24232 13.1807H12.6079V15.2981H7.30105V50.5802Z" fill="#3A3B3E"/>
<path d="M58.6638 60.1617H6.25682C3.08065 60.1617 0.5 57.8987 0.5 55.1327V50.5802C0.5 49.9979 0.976427 49.5215 1.55873 49.5215H25.6977C26.28 49.5215 26.7564 49.9979 26.7564 50.5802V53.1212H38.1774V50.5802C38.1774 49.9979 38.6538 49.5215 39.2361 49.5215H63.3619C63.9442 49.5215 64.4206 49.9979 64.4206 50.5802V55.1327C64.4206 57.8987 61.84 60.1617 58.6638 60.1617ZM2.61745 51.6389V55.1327C2.61745 56.7473 4.24524 58.0442 6.25682 58.0442H58.677C60.6754 58.0442 62.3164 56.7341 62.3164 55.1327V51.6389H40.2816V54.1799C40.2816 54.7622 39.8052 55.2386 39.2229 55.2386H25.6977C25.1154 55.2386 24.639 54.7622 24.639 54.1799V51.6389H2.61745Z" fill="#3A3B3E"/>
<path d="M58.2146 30.8752H32.739V28.7578H58.2146C58.8895 28.7578 59.4586 28.2813 59.5777 27.6196L62.3701 11.7652C62.4363 11.3682 62.3304 10.9579 62.0657 10.6403C61.801 10.3227 61.4172 10.1507 61.007 10.1507H29.0996V8.0332H61.007C62.0392 8.0332 63.0186 8.48316 63.6803 9.27721C64.342 10.0713 64.6199 11.1167 64.4478 12.1358L61.6554 28.0034C61.3643 29.6577 59.9218 30.8752 58.2146 30.8752Z" fill="#3A3B3E"/>
<path d="M29.9076 19.8246L27.1152 3.94375C26.93 2.88503 26.0168 2.11745 24.9449 2.11745H16.4883V0H24.9449C27.0491 0 28.8357 1.50868 29.193 3.5732L31.9986 19.4541L29.9076 19.8246Z" fill="#3A3B3E"/>
<path d="M60.4509 37.2008H36.5899C34.4857 37.2008 32.6991 35.6922 32.3418 33.6276L30.6875 24.2182L32.7785 23.8477L34.4327 33.2571C34.618 34.3158 35.5312 35.0834 36.6031 35.0834H60.4509V37.2008Z" fill="#3A3B3E"/>
<path d="M40.4009 41.608C38.482 41.608 36.9336 40.0463 36.9336 38.1406H39.051C39.051 38.8817 39.6598 39.4905 40.4009 39.4905C41.142 39.4905 41.7508 38.8817 41.7508 38.1406H43.8683C43.8683 40.0596 42.3066 41.608 40.4009 41.608Z" fill="#3A3B3E"/>
<path d="M52.7642 41.608C50.8453 41.608 49.2969 40.0463 49.2969 38.1406H51.4143C51.4143 38.8817 52.0231 39.4905 52.7642 39.4905C53.5053 39.4905 54.1141 38.8817 54.1141 38.1406H56.2315C56.2315 40.0596 54.6699 41.608 52.7642 41.608Z" fill="#3A3B3E"/>
<path d="M47.3635 14.3857H45.2461V24.5098H47.3635V14.3857Z" fill="#3A3B3E"/>
<path d="M53.8479 14.3857H51.7305V24.5098H53.8479V14.3857Z" fill="#3A3B3E"/>
<path d="M40.7991 14.3857H38.6816V24.5098H40.7991V14.3857Z" fill="#3A3B3E"/>
<path d="M22.3509 12.4131H14.7148V14.5305H22.3509V12.4131Z" fill="#3A3B3E"/>
<path d="M33.2042 20.791H22.5508V22.9085H33.2042V20.791Z" fill="#3A3B3E"/>
<path d="M29.1017 31.7217H19.7188V33.8391H29.1017V31.7217Z" fill="#3A3B3E"/>
</g>
<defs>
<clipPath id="clip0_7336_7674">
<rect width="64" height="60.1621" fill="white" transform="translate(0.5)"/>
</clipPath>
</defs>
</svg>
