<svg width="64" height="61" viewBox="0 0 64 61" fill="none" xmlns="http://www.w3.org/2000/svg">
<g clip-path="url(#clip0_7210_2998)">
<path d="M59.2357 41.2891H57.1183V50.5662H59.2357V41.2891Z" fill="#A0A3AA"/>
<path d="M6.80233 50.5792H4.68488V14.2384C4.68488 13.6561 5.1613 13.1797 5.7436 13.1797H12.1092V15.2971H6.80233V50.5792Z" fill="#A0A3AA"/>
<path d="M58.1638 60.1597H5.75682C2.58065 60.1597 0 57.8967 0 55.1308V50.5783C0 49.996 0.476427 49.5195 1.05873 49.5195H25.1977C25.78 49.5195 26.2564 49.996 26.2564 50.5783V53.1192H37.6774V50.5783C37.6774 49.996 38.1538 49.5195 38.7361 49.5195H62.8619C63.4442 49.5195 63.9206 49.996 63.9206 50.5783V55.1308C63.9206 57.8967 61.34 60.1597 58.1638 60.1597ZM2.11745 51.637V55.1308C2.11745 56.7453 3.74524 58.0423 5.75682 58.0423H58.177C60.1754 58.0423 61.8164 56.7321 61.8164 55.1308V51.637H39.7816V54.1779C39.7816 54.7602 39.3052 55.2367 38.7229 55.2367H25.1977C24.6154 55.2367 24.139 54.7602 24.139 54.1779V51.637H2.11745Z" fill="#A0A3AA"/>
<path d="M57.7139 30.8752H32.2382V28.7578H57.7139C58.3888 28.7578 58.9579 28.2813 59.077 27.6196L61.8694 11.7652C61.9355 11.3682 61.8297 10.9579 61.565 10.6403C61.3003 10.3227 60.9165 10.1507 60.5062 10.1507H28.5989V8.0332H60.5062C61.5385 8.0332 62.5178 8.48316 63.1795 9.27721C63.8412 10.0713 64.1191 11.1167 63.9471 12.1358L61.1547 28.0034C60.8636 29.6577 59.421 30.8752 57.7139 30.8752Z" fill="#A0A3AA"/>
<path d="M29.4061 19.8246L26.6138 3.94375C26.4285 2.88503 25.5153 2.11745 24.4434 2.11745H15.9868V0H24.4434C26.5476 0 28.3342 1.50868 28.6915 3.5732L31.4971 19.4541L29.4061 19.8246Z" fill="#A0A3AA"/>
<path d="M59.9504 37.2008H36.0894C33.9851 37.2008 32.1985 35.6922 31.8412 33.6276L30.187 24.2182L32.2779 23.8477L33.9322 33.2571C34.1175 34.3158 35.0306 35.0834 36.1026 35.0834H59.9504V37.2008Z" fill="#A0A3AA"/>
<path d="M39.9008 41.608C37.9818 41.608 36.4334 40.0463 36.4334 38.1406H38.5509C38.5509 38.8817 39.1597 39.4905 39.9008 39.4905C40.6419 39.4905 41.2506 38.8817 41.2506 38.1406H43.3681C43.3681 40.0596 41.8065 41.608 39.9008 41.608Z" fill="#A0A3AA"/>
<path d="M52.2614 41.608C50.3425 41.608 48.7941 40.0463 48.7941 38.1406H50.9115C50.9115 38.8817 51.5203 39.4905 52.2614 39.4905C53.0025 39.4905 53.6113 38.8817 53.6113 38.1406H55.7287C55.7287 40.0596 54.1671 41.608 52.2614 41.608Z" fill="#A0A3AA"/>
<path d="M46.8619 14.3867H44.7445V24.5108H46.8619V14.3867Z" fill="#A0A3AA"/>
<path d="M53.3465 14.3867H51.2291V24.5108H53.3465V14.3867Z" fill="#A0A3AA"/>
<path d="M40.2978 14.3867H38.1804V24.5108H40.2978V14.3867Z" fill="#A0A3AA"/>
<path d="M21.8495 12.4141H14.2134V14.5315H21.8495V12.4141Z" fill="#A0A3AA"/>
<path d="M32.7014 20.791H22.048V22.9085H32.7014V20.791Z" fill="#A0A3AA"/>
<path d="M28.5988 31.7227H19.2159V33.8401H28.5988V31.7227Z" fill="#A0A3AA"/>
</g>
<defs>
<clipPath id="clip0_7210_2998">
<rect width="64" height="60.1621" fill="white"/>
</clipPath>
</defs>
</svg>
