<svg width="65" height="61" viewBox="0 0 65 61" fill="none" xmlns="http://www.w3.org/2000/svg">
<g clip-path="url(#clip0_7336_5133)">
<path d="M59.7366 41.29H57.6191V50.5671H59.7366V41.29Z" fill="#3A3B3E"/>
<path d="M7.303 50.5802H5.18555V14.2394C5.18555 13.6571 5.66197 13.1807 6.24427 13.1807H12.6099V15.2981H7.303V50.5802Z" fill="#3A3B3E"/>
<path d="M58.6638 60.1617H6.25682C3.08065 60.1617 0.5 57.8987 0.5 55.1327V50.5802C0.5 49.9979 0.976427 49.5215 1.55873 49.5215H25.6977C26.28 49.5215 26.7564 49.9979 26.7564 50.5802V53.1212H38.1774V50.5802C38.1774 49.9979 38.6538 49.5215 39.2361 49.5215H63.3619C63.9442 49.5215 64.4206 49.9979 64.4206 50.5802V55.1327C64.4206 57.8987 61.84 60.1617 58.6638 60.1617ZM2.61745 51.6389V55.1327C2.61745 56.7473 4.24524 58.0442 6.25682 58.0442H58.677C60.6754 58.0442 62.3164 56.7341 62.3164 55.1327V51.6389H40.2816V54.1799C40.2816 54.7622 39.8052 55.2386 39.2229 55.2386H25.6977C25.1154 55.2386 24.639 54.7622 24.639 54.1799V51.6389H2.61745Z" fill="#3A3B3E"/>
<path d="M58.2126 30.8752H32.737V28.7578H58.2126C58.8876 28.7578 59.4566 28.2813 59.5757 27.6196L62.3681 11.7652C62.4343 11.3682 62.3284 10.9579 62.0637 10.6403C61.7991 10.3227 61.4153 10.1507 61.005 10.1507H29.0977V8.0332H61.005C62.0373 8.0332 63.0166 8.48316 63.6783 9.27721C64.34 10.0713 64.6179 11.1167 64.4459 12.1358L61.6535 28.0034C61.3623 29.6577 59.9198 30.8752 58.2126 30.8752Z" fill="#3A3B3E"/>
<path d="M29.9057 19.8246L27.1133 3.94375C26.928 2.88503 26.0149 2.11745 24.9429 2.11745H16.4863V0H24.9429C27.0471 0 28.8337 1.50868 29.191 3.5732L31.9967 19.4541L29.9057 19.8246Z" fill="#3A3B3E"/>
<path d="M60.449 37.2008H36.5879C34.4837 37.2008 32.6971 35.6922 32.3398 33.6276L30.6855 24.2182L32.7765 23.8477L34.4308 33.2571C34.6161 34.3158 35.5292 35.0834 36.6012 35.0834H60.449V37.2008Z" fill="#3A3B3E"/>
<path d="M40.4009 41.608C38.482 41.608 36.9336 40.0463 36.9336 38.1406H39.051C39.051 38.8817 39.6598 39.4905 40.4009 39.4905C41.142 39.4905 41.7508 38.8817 41.7508 38.1406H43.8683C43.8683 40.0596 42.3066 41.608 40.4009 41.608Z" fill="#3A3B3E"/>
<path d="M52.7603 41.608C50.8414 41.608 49.293 40.0463 49.293 38.1406H51.4104C51.4104 38.8817 52.0192 39.4905 52.7603 39.4905C53.5014 39.4905 54.1102 38.8817 54.1102 38.1406H56.2276C56.2276 40.0596 54.666 41.608 52.7603 41.608Z" fill="#3A3B3E"/>
<path d="M47.3616 14.3857H45.2441V24.5098H47.3616V14.3857Z" fill="#3A3B3E"/>
<path d="M53.846 14.3857H51.7285V24.5098H53.846V14.3857Z" fill="#3A3B3E"/>
<path d="M40.7971 14.3857H38.6797V24.5098H40.7971V14.3857Z" fill="#3A3B3E"/>
<path d="M22.349 12.4131H14.7129V14.5305H22.349V12.4131Z" fill="#3A3B3E"/>
<path d="M33.2003 20.791H22.5469V22.9085H33.2003V20.791Z" fill="#3A3B3E"/>
<path d="M29.0978 31.7217H19.7148V33.8391H29.0978V31.7217Z" fill="#3A3B3E"/>
</g>
<defs>
<clipPath id="clip0_7336_5133">
<rect width="64" height="60.1621" fill="white" transform="translate(0.5)"/>
</clipPath>
</defs>
</svg>
