<svg width="64" height="59" viewBox="0 0 64 59" fill="none" xmlns="http://www.w3.org/2000/svg">
<path d="M5.58634 31.0125C2.50474 31.0125 0 28.5078 0 25.4262C0 22.3446 2.50474 19.8398 5.58634 19.8398C8.66793 19.8398 11.1727 22.3446 11.1727 25.4262C11.1727 28.5078 8.66793 31.0125 5.58634 31.0125ZM5.58634 22.2687C3.84061 22.2687 2.42884 23.6805 2.42884 25.4262C2.42884 27.1719 3.84061 28.5837 5.58634 28.5837C7.33207 28.5837 8.74383 27.1719 8.74383 25.4262C8.74383 23.6805 7.33207 22.2687 5.58634 22.2687Z" fill="#A0A3AA"/>
<path d="M23.1955 19.2332C20.1139 19.2332 17.6091 16.7285 17.6091 13.6469C17.6091 10.5653 20.1139 8.06055 23.1955 8.06055C26.2771 8.06055 28.7818 10.5653 28.7818 13.6469C28.7818 16.7285 26.2771 19.2332 23.1955 19.2332ZM23.1955 10.4894C21.4497 10.4894 20.038 11.9012 20.038 13.6469C20.038 15.3926 21.4497 16.8044 23.1955 16.8044C24.9412 16.8044 26.353 15.3926 26.353 13.6469C26.353 11.9012 24.9412 10.4894 23.1955 10.4894Z" fill="#A0A3AA"/>
<path d="M40.2429 23.741C37.1613 23.741 34.6566 21.2363 34.6566 18.1547C34.6566 15.0731 37.1613 12.5684 40.2429 12.5684C43.3245 12.5684 45.8292 15.0731 45.8292 18.1547C45.8292 21.2363 43.3245 23.741 40.2429 23.741ZM40.2429 14.9972C38.4972 14.9972 37.0854 16.409 37.0854 18.1547C37.0854 19.9004 38.4972 21.3122 40.2429 21.3122C41.9886 21.3122 43.4004 19.9004 43.4004 18.1547C43.4004 16.409 41.9886 14.9972 40.2429 14.9972Z" fill="#A0A3AA"/>
<path d="M58.4137 11.1727C55.3321 11.1727 52.8273 8.66793 52.8273 5.58634C52.8273 2.50474 55.3321 0 58.4137 0C61.4953 0 64 2.50474 64 5.58634C64 8.66793 61.4801 11.1727 58.4137 11.1727ZM58.4137 2.42884C56.6679 2.42884 55.2562 3.84061 55.2562 5.58634C55.2562 7.33207 56.6679 8.74383 58.4137 8.74383C60.1594 8.74383 61.5712 7.33207 61.5712 5.58634C61.5712 3.84061 60.1442 2.42884 58.4137 2.42884Z" fill="#A0A3AA"/>
<path d="M19.1823 14.8699L8.57202 21.9707L9.92294 23.9893L20.5333 16.8885L19.1823 14.8699Z" fill="#A0A3AA"/>
<path d="M27.7258 13.5915L27.1042 15.9395L35.5569 18.177L36.1785 15.829L27.7258 13.5915Z" fill="#A0A3AA"/>
<path d="M54.1244 7.07421L43.152 14.668L44.5343 16.6652L55.5066 9.07145L54.1244 7.07421Z" fill="#A0A3AA"/>
<path d="M6.80073 43.8398H4.37189V58.2307H6.80073V43.8398Z" fill="#A0A3AA"/>
<path d="M15.6054 37.7832H13.1765V58.2158H15.6054V37.7832Z" fill="#A0A3AA"/>
<path d="M24.4099 26.793H21.981V58.2161H24.4099V26.793Z" fill="#A0A3AA"/>
<path d="M33.2144 31.8945H30.7856V58.2323H33.2144V31.8945Z" fill="#A0A3AA"/>
<path d="M42.019 38.7695H39.5901V58.2306H42.019V38.7695Z" fill="#A0A3AA"/>
<path d="M50.8235 29.7988H48.3947V58.2315H50.8235V29.7988Z" fill="#A0A3AA"/>
<path d="M59.6281 19.4316H57.1992V58.2172H59.6281V19.4316Z" fill="#A0A3AA"/>
</svg>
