<svg width="65" height="57" viewBox="0 0 65 57" fill="none" xmlns="http://www.w3.org/2000/svg">
<g clip-path="url(#clip0_7336_6498)">
<path d="M11.9075 46.7066C11.7668 46.7066 11.6121 46.6785 11.4714 46.6222C11.0495 46.4534 10.7822 46.0314 10.7822 45.5813V37.1699H7.08286C3.45385 37.1558 0.5 34.202 0.5 30.587V7.08286C0.5 3.45385 3.45385 0.5 7.08286 0.5H38.2248C41.8539 0.5 44.8077 3.45385 44.8077 7.08286V30.587C44.8077 34.216 41.8539 37.1699 38.2248 37.1699H21.9084L12.6952 46.3831C12.4842 46.5941 12.1888 46.7066 11.9075 46.7066ZM7.08286 2.75055C4.69165 2.75055 2.75055 4.69165 2.75055 7.08286V30.587C2.75055 32.9782 4.69165 34.9193 7.08286 34.9193H11.9075C12.5264 34.9193 13.0327 35.4257 13.0327 36.0446V42.8666L20.6565 35.2429C20.8675 35.0319 21.1488 34.9193 21.4582 34.9193H38.2389C40.6301 34.9193 42.5712 32.9782 42.5712 30.587V7.08286C42.5712 4.69165 40.6301 2.75055 38.2389 2.75055H7.08286Z" fill="#171717"/>
<path d="M53.092 56.1164C52.7966 56.1164 52.5153 56.0038 52.2903 55.7928L43.0771 46.5797H26.7606C23.1316 46.5797 20.1777 43.6258 20.1777 39.9968H22.4283C22.4283 42.388 24.3694 44.3291 26.7606 44.3291H43.5413C43.8366 44.3291 44.132 44.4416 44.343 44.6526L51.9667 52.2764V45.4544C51.9667 44.8355 52.4731 44.3291 53.092 44.3291H57.9166C60.3078 44.3291 62.2489 42.388 62.2489 39.9968V16.4926C62.2489 14.1014 60.3078 12.1603 57.9166 12.1603H47.8454V9.92383H57.9166C61.5456 9.92383 64.4995 12.8777 64.4995 16.4926V39.9968C64.4995 43.6258 61.5456 46.5797 57.9166 46.5797H54.2173V54.9911C54.2173 55.4412 53.95 55.8632 53.5281 56.032C53.3874 56.0882 53.2327 56.1164 53.092 56.1164Z" fill="#171717"/>
<path d="M12.4696 21.5428C10.4582 21.5428 8.8125 19.8971 8.8125 17.8857C8.8125 15.8742 10.4582 14.2285 12.4696 14.2285C14.4811 14.2285 16.1268 15.8742 16.1268 17.8857C16.1268 19.8971 14.4811 21.5428 12.4696 21.5428ZM12.4696 16.4791C11.696 16.4791 11.063 17.112 11.063 17.8857C11.063 18.6593 11.696 19.2923 12.4696 19.2923C13.2433 19.2923 13.8762 18.6593 13.8762 17.8857C13.8762 17.112 13.2433 16.4791 12.4696 16.4791Z" fill="#171717"/>
<path d="M22.6532 21.5428C20.6418 21.5428 18.9961 19.8971 18.9961 17.8857C18.9961 15.8742 20.6418 14.2285 22.6532 14.2285C24.6647 14.2285 26.3104 15.8742 26.3104 17.8857C26.2963 19.8971 24.6647 21.5428 22.6532 21.5428ZM22.6532 16.4791C21.8796 16.4791 21.2466 17.112 21.2466 17.8857C21.2466 18.6593 21.8796 19.2923 22.6532 19.2923C23.4269 19.2923 24.0598 18.6593 24.0598 17.8857C24.0598 17.112 23.4269 16.4791 22.6532 16.4791Z" fill="#171717"/>
<path d="M32.8368 21.5428C30.8254 21.5428 29.1797 19.8971 29.1797 17.8857C29.1797 15.8742 30.8254 14.2285 32.8368 14.2285C34.8483 14.2285 36.494 15.8742 36.494 17.8857C36.4799 19.8971 34.8483 21.5428 32.8368 21.5428ZM32.8368 16.4791C32.0632 16.4791 31.4302 17.112 31.4302 17.8857C31.4302 18.6593 32.0632 19.2923 32.8368 19.2923C33.6105 19.2923 34.2434 18.6593 34.2434 17.8857C34.2434 17.112 33.6105 16.4791 32.8368 16.4791Z" fill="#171717"/>
</g>
<defs>
<clipPath id="clip0_7336_6498">
<rect width="64" height="55.6167" fill="white" transform="translate(0.5 0.5)"/>
</clipPath>
</defs>
</svg>
