<svg width="21" height="20" viewBox="0 0 21 20" fill="none" xmlns="http://www.w3.org/2000/svg">
<g clip-path="url(#clip0_7336_3481)">
<path d="M17.5808 1.25451C14.8075 1.15368 12.9342 2.74368 11.9458 5.99951C12.4104 5.78566 12.9153 5.67344 13.4267 5.67034C16.9425 5.67034 12.6175 12.4662 11.5408 12.4662C10.2725 12.4662 9.51 6.39618 9.25167 4.73868C8.8925 2.43451 7.935 1.35701 6.37917 1.50784C5.72167 1.57034 4.73333 2.17368 3.4175 3.32534C2.45156 4.21036 1.47903 5.08817 0.5 5.95868L1.44083 7.18534C2.33667 6.55034 2.85917 6.23201 3.00833 6.23201C5.585 6.23201 5.415 18.7503 9.49417 18.7503C13.4125 18.7503 20.3092 9.14951 20.4808 5.30118L20.4917 5.29284C20.6033 2.65534 19.6408 1.30534 17.5808 1.25451Z" fill="#A0A3AA"/>
</g>
<defs>
<clipPath id="clip0_7336_3481">
<rect width="20" height="20" fill="white" transform="translate(0.5)"/>
</clipPath>
</defs>
</svg>
