<svg width="139" height="166" fill="none" xmlns="http://www.w3.org/2000/svg"><path d="M114.083 38.772c15.862-.167 14.756 15.45 11.173 22.58-4.558 9.07-10.011 16.289-18.597 21.535-13.016 7.953-32.986 11.698-47.631 7.82-18.29-4.844-20.433-33.353-1.924-23.935 8.897 4.526 10.11 12.47 7.47 19.734-4.475 12.318-11.63 21.448-23.058 27.297-11.494 5.881-22.426 4.157-34.53 5.808" stroke="#37B853" stroke-width="3" stroke-linecap="round"/><path d="M9.571 111.69c-.75 2.19-1.92 5.341-3.87 6.61-1.37.89 3.56 3.103 3.97 3.346l6.171 3.663" stroke="#37B853" stroke-width="3" stroke-linecap="round"/></svg>