<svg width="24" height="24" fill="none" xmlns="http://www.w3.org/2000/svg"><g clip-path="url(#clip0_7497_3192)"><path d="M12 24c6.627 0 12-5.373 12-12S18.627 0 12 0 0 5.373 0 12s5.373 12 12 12z" fill="#37B853"/><path d="M8.251 17.853l-4.388-4.698a1.603 1.603 0 01.076-2.26 1.604 1.604 0 012.262.076l3.385 3.623 5.359-5.007a1.59 1.59 0 01.15-.124l2.52-2.354a1.604 1.604 0 012.262.077c.6.643.566 1.66-.077 2.26l-7.697 7.192-.008-.009-2.662 2.488-1.182-1.265z" fill="#fff"/></g><defs><clipPath id="clip0_7497_3192"><path fill="#fff" d="M0 0h24v24H0z"/></clipPath></defs></svg>