<svg width="86" height="86" fill="none" xmlns="http://www.w3.org/2000/svg"><g filter="url(#filter0_d_7497_3146)"><circle cx="42.692" cy="30.692" r="22.692" fill="url(#paint0_linear_7497_3146)"/></g><g clip-path="url(#clip0_7497_3146)" fill="#fff"><path d="M34.002 29.32a2.29 2.29 0 00-2.287 2.288v7.32a2.29 2.29 0 002.287 2.287h2.745c.516 0 .99-.173 1.373-.463V29.32h-4.118zm19.49 3.433a2.03 2.03 0 00-.596-1.44 2.272 2.272 0 00.586-1.747c-.107-1.163-1.155-2.074-2.387-2.074h-5.652c.28-.85.729-2.408.729-3.66 0-1.985-1.687-3.66-2.745-3.66-.951 0-1.63.535-1.66.557a.46.46 0 00-.17.358v3.103l-2.636 5.708-.11.056v9.807c.745.352 1.688.541 2.288.541h8.399c.996 0 1.868-.672 2.073-1.598a2.059 2.059 0 00-.165-1.375 2.05 2.05 0 00.916-2.746 2.048 2.048 0 001.13-1.83z"/></g><defs><linearGradient id="paint0_linear_7497_3146" x1="56.234" y1="46.43" x2="31.712" y2="12.392" gradientUnits="userSpaceOnUse"><stop stop-color="#007AEB"/><stop offset="1" stop-color="#CAE6FF"/></linearGradient><clipPath id="clip0_7497_3146"><path fill="#fff" transform="translate(31.715 19.71)" d="M0 0h21.96v21.96H0z"/></clipPath><filter id="filter0_d_7497_3146" x="0" y="0" width="85.385" height="85.385" filterUnits="userSpaceOnUse" color-interpolation-filters="sRGB"><feFlood flood-opacity="0" result="BackgroundImageFix"/><feColorMatrix in="SourceAlpha" values="0 0 0 0 0 0 0 0 0 0 0 0 0 0 0 0 0 0 127 0" result="hardAlpha"/><feOffset dy="12"/><feGaussianBlur stdDeviation="10"/><feComposite in2="hardAlpha" operator="out"/><feColorMatrix values="0 0 0 0 0 0 0 0 0 0.478833 0 0 0 0 0.920833 0 0 0 0.2 0"/><feBlend in2="BackgroundImageFix" result="effect1_dropShadow_7497_3146"/><feBlend in="SourceGraphic" in2="effect1_dropShadow_7497_3146" result="shape"/></filter></defs></svg>