<svg width="61" height="57" fill="none" xmlns="http://www.w3.org/2000/svg"><path d="M9.875 11.625a1.875 1.875 0 100-3.75 1.875 1.875 0 000 3.75zm7.5-1.875a1.875 1.875 0 11-3.75 0 1.875 1.875 0 013.75 0zm3.75 1.875a1.875 1.875 0 100-3.75 1.875 1.875 0 000 3.75zm-3.75 13.125a1.875 1.875 0 011.875 1.875v11.25a5.625 5.625 0 1011.25 0v-11.25a1.875 1.875 0 113.75 0v11.25a9.375 9.375 0 11-18.75 0v-11.25a1.875 1.875 0 011.875-1.875zM45.5 26.625a1.875 1.875 0 01-1.875 1.875v15a1.875 1.875 0 110 3.75h-3.75a1.875 1.875 0 110-3.75v-15a1.875 1.875 0 110-3.75h3.75a1.875 1.875 0 011.875 1.875z" fill="#171717"/><path fill-rule="evenodd" clip-rule="evenodd" d="M.5 6A5.625 5.625 0 016.125.375h48.75A5.625 5.625 0 0160.5 6v45a5.625 5.625 0 01-5.625 5.625H6.125A5.625 5.625 0 01.5 51V6zm56.25 0v9.375H4.25V6a1.875 1.875 0 011.875-1.875h48.75A1.875 1.875 0 0156.75 6zm0 13.125H4.25V51a1.875 1.875 0 001.875 1.875h48.75A1.875 1.875 0 0056.75 51V19.125z" fill="#171717"/></svg>