<svg width="48" height="48" fill="none" xmlns="http://www.w3.org/2000/svg"><path d="M48 11.344V4.313a4.224 4.224 0 00-4.219-4.22H4.22A4.224 4.224 0 000 4.314v7.03h48zM32.437 5.719h8.438a1.406 1.406 0 010 2.812h-8.438a1.406 1.406 0 010-2.812zm-14.062 0a1.406 1.406 0 110 2.812 1.406 1.406 0 010-2.812zm-5.625 0a1.406 1.406 0 110 2.812 1.406 1.406 0 010-2.812zm-5.625 0a1.406 1.406 0 110 2.812 1.406 1.406 0 010-2.812zM0 14.156v29.532a4.224 4.224 0 004.219 4.218H43.78A4.223 4.223 0 0048 43.688V14.155H0zm16.44 19.996a1.406 1.406 0 11-1.756 2.196l-7.031-5.625a1.407 1.407 0 010-2.196l7.031-5.625a1.406 1.406 0 111.757 2.196l-5.659 4.527 5.659 4.527zm13.071-13.817l-8.437 19.688a1.406 1.406 0 11-2.585-1.108l8.437-19.688a1.406 1.406 0 012.585 1.108zm10.836 10.388l-7.031 5.625a1.406 1.406 0 11-1.757-2.196l5.659-4.527-5.659-4.527a1.406 1.406 0 111.757-2.196l7.031 5.625a1.407 1.407 0 010 2.196z" fill="#fff"/></svg>