<svg width="54" height="53" fill="none" xmlns="http://www.w3.org/2000/svg"><path d="M47.625.25H6.375A5.63 5.63 0 00.75 5.875v41.25a5.63 5.63 0 005.625 5.625h41.25a5.63 5.63 0 005.625-5.625V5.875A5.63 5.63 0 0047.625.25zM6.375 4h41.25A1.877 1.877 0 0149.5 5.875V11.5h-45V5.875A1.877 1.877 0 016.375 4zm41.25 45H6.375A1.877 1.877 0 014.5 47.125V15.25h45v31.875A1.877 1.877 0 0147.625 49z" fill="#171717"/><path d="M6.375 5.875h3.75v3.75h-3.75v-3.75zm5.625 0h3.75v3.75H12v-3.75zm5.625 0h3.75v3.75h-3.75v-3.75zm22.5 16.875H17.479A9.07 9.07 0 0010.125 19v3.75a5.323 5.323 0 015.17 4.035l2.386 9.544A1.876 1.876 0 0019.5 37.75h16.875a1.875 1.875 0 001.78-1.282l3.75-11.25a1.874 1.874 0 00-1.78-2.468zM35.025 34H20.962l-1.875-7.5h18.437L35.025 34zM22.313 45.25a2.813 2.813 0 100-5.625 2.813 2.813 0 000 5.625zm11.25 0a2.813 2.813 0 100-5.625 2.813 2.813 0 000 5.625z" fill="#171717"/></svg>