<svg width="49" height="40" fill="none" xmlns="http://www.w3.org/2000/svg"><path d="M30.5 9a2 2 0 01-2-2V4h-8v3a2 2 0 11-4 0V4c0-2.206 1.794-4 4-4h8c2.206 0 4 1.794 4 4v3a2 2 0 01-2 2zm-4.58 17.76a4.382 4.382 0 01-2.96-.04L.5 19.24V34.5C.5 37.54 2.96 40 6 40h37c3.04 0 5.5-2.46 5.5-5.5V19.24l-22.58 7.52z" fill="url(#paint0_linear_6918_5860)"/><path d="M48.5 11.5v4.58l-23.52 7.84c-.16.06-.32.08-.48.08-.16 0-.32-.02-.48-.08L.5 16.08V11.5C.5 8.46 2.96 6 6 6h37c3.04 0 5.5 2.46 5.5 5.5z" fill="url(#paint1_linear_6918_5860)"/><defs><linearGradient id="paint0_linear_6918_5860" x1=".5" y1="40" x2="49.996" y2="38.054" gradientUnits="userSpaceOnUse"><stop offset=".005" stop-color="#456AEB"/><stop offset="1" stop-color="#DF5788"/></linearGradient><linearGradient id="paint1_linear_6918_5860" x1=".5" y1="24" x2="49.697" y2="19.702" gradientUnits="userSpaceOnUse"><stop offset=".005" stop-color="#456AEB"/><stop offset="1" stop-color="#DF5788"/></linearGradient></defs></svg>