<svg width="49" height="40" fill="none" xmlns="http://www.w3.org/2000/svg"><path d="M35.797 36.951H28.73v-1.898h-8.462v1.898h-7.066a1.406 1.406 0 000 2.813h22.594a1.406 1.406 0 000-2.813z" fill="url(#paint0_linear_6918_5804)"/><path d="M17.44 15.775a2.83 2.83 0 100-5.66 2.83 2.83 0 000 5.66z" fill="url(#paint1_linear_6918_5804)"/><path d="M47.094.236H1.906C1.13.236.5.866.5 1.643v24.011h48V1.643c0-.777-.63-1.407-1.406-1.407zM24.5 14.351h-1.595a5.606 5.606 0 01-.609 1.462l1.13 1.13a1.406 1.406 0 11-1.988 1.99l-1.13-1.131a5.61 5.61 0 01-1.462.608v1.596a1.406 1.406 0 01-2.813 0V18.41a5.61 5.61 0 01-1.461-.608l-1.13 1.13a1.402 1.402 0 01-1.99 0 1.407 1.407 0 010-1.989l1.13-1.13a5.606 5.606 0 01-.608-1.462H10.38a1.406 1.406 0 010-2.812h1.595a5.605 5.605 0 01.609-1.462l-1.13-1.13a1.406 1.406 0 111.988-1.989l1.13 1.13a5.607 5.607 0 011.462-.608V5.885a1.406 1.406 0 012.813 0V7.48a5.608 5.608 0 011.461.609l1.13-1.13a1.406 1.406 0 111.99 1.988l-1.13 1.13c.27.456.475.948.608 1.462H24.5a1.406 1.406 0 010 2.813zM38.621 20h-8.473a1.406 1.406 0 010-2.813h8.473a1.406 1.406 0 010 2.813zm0-5.649h-8.473a1.406 1.406 0 010-2.812h8.473a1.406 1.406 0 010 2.813zm0-5.648h-8.473a1.406 1.406 0 010-2.812h8.473a1.406 1.406 0 010 2.812zM.5 30.833c0 .777.63 1.407 1.406 1.407h45.188c.776 0 1.406-.63 1.406-1.406v-2.367H.5v2.367z" fill="url(#paint2_linear_6918_5804)"/><defs><linearGradient id="paint0_linear_6918_5804" x1="11.797" y1="39.764" x2="37.241" y2="35.268" gradientUnits="userSpaceOnUse"><stop offset=".005" stop-color="#456AEB"/><stop offset="1" stop-color="#DF5788"/></linearGradient><linearGradient id="paint1_linear_6918_5804" x1="14.609" y1="15.775" x2="20.449" y2="15.584" gradientUnits="userSpaceOnUse"><stop offset=".005" stop-color="#456AEB"/><stop offset="1" stop-color="#DF5788"/></linearGradient><linearGradient id="paint2_linear_6918_5804" x1=".5" y1="32.24" x2="49.953" y2="29.81" gradientUnits="userSpaceOnUse"><stop offset=".005" stop-color="#456AEB"/><stop offset="1" stop-color="#DF5788"/></linearGradient></defs></svg>