<svg width="49" height="48" fill="none" xmlns="http://www.w3.org/2000/svg"><path d="M14.04 18.974h7.692v29.025h-7.693V18.974zm13.23 6.154h7.692v22.871H27.27V25.128zM40.5 14.256h7.693v33.743h-7.692V14.256zM.81 29.948H8.5V48H.809V29.95z" fill="url(#paint0_linear_6918_5840)"/><path d="M44.08 0a3.893 3.893 0 00-3.623 5.317L32.95 11.71a3.878 3.878 0 00-1.852-.468 3.884 3.884 0 00-2.826 1.216l-6.48-2.654.003-.075A3.893 3.893 0 0017.9 5.838a3.893 3.893 0 00-3.841 4.53l-6.732 3.98a3.893 3.893 0 00-6.303 3.057 3.893 3.893 0 003.894 3.892 3.893 3.893 0 003.842-4.53l6.731-3.98a3.879 3.879 0 002.41.835 3.884 3.884 0 002.825-1.216l6.48 2.654-.002.075a3.893 3.893 0 003.895 3.892 3.893 3.893 0 003.676-5.177l7.589-6.465a3.893 3.893 0 005.612-3.494A3.893 3.893 0 0044.08 0z" fill="url(#paint1_linear_6918_5840)"/><defs><linearGradient id="paint0_linear_6918_5840" x1=".809" y1="47.999" x2="49.642" y2="45.753" gradientUnits="userSpaceOnUse"><stop offset=".005" stop-color="#456AEB"/><stop offset="1" stop-color="#DF5788"/></linearGradient><linearGradient id="paint1_linear_6918_5840" x1="1.023" y1="21.297" x2="49.262" y2="17.814" gradientUnits="userSpaceOnUse"><stop offset=".005" stop-color="#456AEB"/><stop offset="1" stop-color="#DF5788"/></linearGradient></defs></svg>