<svg width="54" height="55" fill="none" xmlns="http://www.w3.org/2000/svg"><path d="M44.5 24.375h-5c-6.05 0-9.375-3.325-9.375-9.375v-5c0-6.05 3.325-9.375 9.375-9.375h5c6.05 0 9.375 3.325 9.375 9.375v5c0 6.05-3.325 9.375-9.375 9.375zm-5-20c-3.95 0-5.625 1.675-5.625 5.625v5c0 3.95 1.675 5.625 5.625 5.625h5c3.95 0 5.625-1.675 5.625-5.625v-5c0-3.95-1.675-5.625-5.625-5.625h-5zm-25 50h-5C3.45 54.375.125 51.05.125 45v-5c0-6.05 3.325-9.375 9.375-9.375h5c6.05 0 9.375 3.325 9.375 9.375v5c0 6.05-3.325 9.375-9.375 9.375zm-5-20c-3.95 0-5.625 1.675-5.625 5.625v5c0 3.95 1.675 5.625 5.625 5.625h5c3.95 0 5.625-1.675 5.625-5.625v-5c0-3.95-1.675-5.625-5.625-5.625h-5zm2.5-10C5.45 24.375.125 19.05.125 12.5S5.45.625 12 .625 23.875 5.95 23.875 12.5 18.55 24.375 12 24.375zm0-20c-4.475 0-8.125 3.65-8.125 8.125s3.65 8.125 8.125 8.125 8.125-3.65 8.125-8.125S16.475 4.375 12 4.375zm30 50c-6.55 0-11.875-5.325-11.875-11.875S35.45 30.625 42 30.625 53.875 35.95 53.875 42.5 48.55 54.375 42 54.375zm0-20c-4.475 0-8.125 3.65-8.125 8.125s3.65 8.125 8.125 8.125 8.125-3.65 8.125-8.125-3.65-8.125-8.125-8.125z" fill="#171717"/></svg>