<svg width="45" height="48" fill="none" xmlns="http://www.w3.org/2000/svg"><path d="M32.025 19.004a6.917 6.917 0 013.988-3.527 6.948 6.948 0 012.25-.355V5.218A5.224 5.224 0 0033.044 0H5.217A5.224 5.224 0 000 5.218V40a5.224 5.224 0 005.218 5.218H22.52l-.188-.546a8.64 8.64 0 01.412-6.651l9.28-19.018zM6.957 10.435h20.87a1.739 1.739 0 110 3.479H6.957a1.74 1.74 0 010-3.479zm0 6.957h19.13a1.74 1.74 0 010 3.478H6.958a1.739 1.739 0 110-3.478zM19.13 34.784H6.957a1.739 1.739 0 110-3.479H19.13a1.74 1.74 0 010 3.479zM6.957 27.827a1.74 1.74 0 010-3.478h15.652a1.739 1.739 0 110 3.478H6.957zm37.573-2.722L35.246 44.13a5.189 5.189 0 01-2.993 2.645l-3.289 1.13a1.739 1.739 0 01-2.208-1.078l-1.133-3.288a5.181 5.181 0 01.247-3.988l9.284-19.022a3.45 3.45 0 011.993-1.763 3.441 3.441 0 012.656.163l3.127 1.526a3.458 3.458 0 011.764 1.994 3.447 3.447 0 01-.164 2.656z" fill="url(#paint0_linear_6918_5850)"/><defs><linearGradient id="paint0_linear_6918_5850" x1="0" y1="48" x2="46.312" y2="46.581" gradientUnits="userSpaceOnUse"><stop offset=".005" stop-color="#456AEB"/><stop offset="1" stop-color="#DF5788"/></linearGradient></defs></svg>