<svg width="48" height="48" fill="none" xmlns="http://www.w3.org/2000/svg"><path d="M30 39H18a1.5 1.5 0 00-1.5 1.5v3c0 2.481 2.019 4.5 4.5 4.5h6c2.481 0 4.5-2.019 4.5-4.5v-3A1.5 1.5 0 0030 39z" fill="url(#paint0_linear_6918_5827)"/><path d="M23.998 23.127a5.127 5.127 0 100-10.254 5.127 5.127 0 000 10.254z" fill="url(#paint1_linear_6918_5827)"/><path d="M41.835 15.51C40.77 7.515 34.155 1.05 26.13.12a18.1 18.1 0 00-14.115 4.44A18.035 18.035 0 006 18c0 6.75 3.72 12.87 9.705 15.975.48.255.795.765.795 1.32v.975c.465-.18.975-.27 1.5-.27h12c.525 0 1.035.09 1.5.27v-.975c0-.555.3-1.065.795-1.32 6.825-3.54 10.56-10.785 9.54-18.465zM33 19.5h-1.017a8.08 8.08 0 01-1.278 3.084l.72.72a1.5 1.5 0 11-2.123 2.12l-.72-.72a8.08 8.08 0 01-3.082 1.279V27a1.5 1.5 0 11-3 0v-1.017a8.081 8.081 0 01-3.084-1.278l-.72.72a1.494 1.494 0 01-2.12 0 1.5 1.5 0 010-2.123l.72-.72a8.08 8.08 0 01-1.28-3.082H15a1.5 1.5 0 110-3h1.017a8.092 8.092 0 011.278-3.084l-.72-.72a1.5 1.5 0 112.123-2.12l.72.72a8.08 8.08 0 013.082-1.28V9a1.5 1.5 0 113 0v1.017a8.083 8.083 0 013.084 1.278l.72-.72a1.5 1.5 0 112.12 2.123l-.719.72a8.09 8.09 0 011.278 3.082H33a1.5 1.5 0 110 3zm-30 0H1.5a1.5 1.5 0 110-3H3a1.5 1.5 0 110 3zM9.15 4.65a1.496 1.496 0 01-1.059-.438L7.031 3.15A1.5 1.5 0 119.15 1.03l1.06 1.061A1.5 1.5 0 019.15 4.65zM8.091 35.409a1.5 1.5 0 01-1.06-2.56l1.06-1.061a1.5 1.5 0 112.121 2.121l-1.06 1.06a1.497 1.497 0 01-1.061.44zM46.5 19.5H45a1.5 1.5 0 110-3h1.5a1.5 1.5 0 110 3zM38.85 4.65a1.5 1.5 0 01-1.06-2.56l1.059-1.06a1.5 1.5 0 112.122 2.12l-1.06 1.06a1.495 1.495 0 01-1.061.44zm1.059 30.759a1.496 1.496 0 01-1.06-.44l-1.061-1.06a1.502 1.502 0 011.062-2.56 1.5 1.5 0 011.06.439l1.061 1.06a1.5 1.5 0 01-1.062 2.561z" fill="url(#paint2_linear_6918_5827)"/><defs><linearGradient id="paint0_linear_6918_5827" x1="16.5" y1="48" x2="31.945" y2="47.157" gradientUnits="userSpaceOnUse"><stop offset=".005" stop-color="#456AEB"/><stop offset="1" stop-color="#DF5788"/></linearGradient><linearGradient id="paint1_linear_6918_5827" x1="18.871" y1="23.127" x2="29.45" y2="22.78" gradientUnits="userSpaceOnUse"><stop offset=".005" stop-color="#456AEB"/><stop offset="1" stop-color="#DF5788"/></linearGradient><linearGradient id="paint2_linear_6918_5827" x1="0" y1="36.27" x2="49.48" y2="34.125" gradientUnits="userSpaceOnUse"><stop offset=".005" stop-color="#456AEB"/><stop offset="1" stop-color="#DF5788"/></linearGradient></defs></svg>