<svg width="61" height="61" fill="none" xmlns="http://www.w3.org/2000/svg"><path d="M59.326 25.326L56.13 24.2A26.09 26.09 0 0053 16.66l1.446-2.893a1.758 1.758 0 00-.33-2.028l-4.971-4.972a1.758 1.758 0 00-2.03-.33l-2.891 1.446a26.08 26.08 0 00-7.522-3.126l-1.019-3.055A1.758 1.758 0 0034.016.5H30.5C13.981.5.5 13.982.5 30.5c0 16.519 13.482 30 30 30h3.516a1.759 1.759 0 001.667-1.202l1.019-3.055a26.079 26.079 0 007.522-3.126l2.891 1.446a1.757 1.757 0 002.03-.33l4.971-4.971a1.757 1.757 0 00.33-2.03l-1.447-2.893a26.874 26.874 0 003.124-7.628l3.16-1.023a1.76 1.76 0 001.217-1.672v-7.032a1.758 1.758 0 00-1.174-1.658zm-55.25 6.932h10.63c.112 3.729.574 7.335 1.358 10.664H7.116a26.29 26.29 0 01-3.04-10.664zm3.04-14.181h8.948c-.784 3.33-1.246 6.936-1.357 10.665H4.076a26.296 26.296 0 013.04-10.665zm21.626-13.76v10.245H20.76c1.406-3.88 4.074-8.92 7.983-10.246zm3.516 17.456c4.007.827 7.031 4.426 7.031 8.727s-3.024 7.9-7.031 8.727V21.773zm-3.516-3.695v10.664H18.224c.118-3.767.616-7.382 1.457-10.664h9.061zm-10.518 14.18h10.518v10.664h-9.061c-.84-3.282-1.339-6.897-1.457-10.664zm10.518 14.18v10.246c-3.909-1.325-6.577-6.366-7.983-10.246h7.983zm3.516-3.643c5.91-.86 10.547-6.052 10.547-12.295 0-6.24-4.635-11.435-10.547-12.295v-3.544c7.899.884 14.062 7.65 14.062 15.839 0 8.19-6.163 14.955-14.062 15.839v-3.544zM21.6 5.555c-2.052 2.623-3.533 5.866-4.556 9.008H9.362A26.607 26.607 0 0121.6 5.556zM9.362 46.439h7.682c1.023 3.14 2.503 6.384 4.556 9.006a26.61 26.61 0 01-12.238-9.007zm47.622-13.7l-2.901.939a1.757 1.757 0 00-1.182 1.327c-.599 2.98-1.768 5.836-3.382 8.255a1.756 1.756 0 00-.11 1.762l1.325 2.65-3.18 3.18-2.65-1.325a1.755 1.755 0 00-1.762.11 22.627 22.627 0 01-8.139 3.382 1.758 1.758 0 00-1.322 1.168l-.932 2.798h-.491v-7.112c9.84-.897 17.578-9.242 17.578-19.372 0-10.13-7.737-18.475-17.578-19.372V4.016h.49l.933 2.798a1.759 1.759 0 001.322 1.168 22.637 22.637 0 018.14 3.382 1.756 1.756 0 001.76.11l2.651-1.326 3.18 3.18-1.325 2.651a1.758 1.758 0 00.11 1.762 22.623 22.623 0 013.382 8.138 1.757 1.757 0 001.139 1.312l2.944 1.038v4.508z" fill="#171717"/></svg>