<svg width="21" height="20" fill="none" xmlns="http://www.w3.org/2000/svg"><path d="M18.934 6.01a1.446 1.446 0 00-2.012-.597l-.41.237a1.384 1.384 0 00-.305-.57 1.436 1.436 0 00-.74-.441l.123-.124a1.48 1.48 0 00.097-2.035 1.447 1.447 0 00-2.102-.056l-.689.691a1.447 1.447 0 00-1.407-1.113h-.002a1.434 1.434 0 00-1.02.423L8.103 4.789l-.004.004-.264.264a1.8 1.8 0 00-.562-1.114 1.076 1.076 0 00-1.485.041L3.3 6.476a5.931 5.931 0 00-.307 8.19c.426.466.923.86 1.474 1.168a5.852 5.852 0 007.193 1.056l5.731-3.31a1.48 1.48 0 00.62-1.939 1.442 1.442 0 00-.604-.62l.733-.423c.691-.377.966-1.23.627-1.94a1.433 1.433 0 00-.6-.617l.148-.086c.69-.381.962-1.236.619-1.946zM3.502 14.201a5.244 5.244 0 01.283-7.24l2.49-2.49a.38.38 0 01.526-.027 1.125 1.125 0 01.028 1.617h-.001l-2.34 2.34a.345.345 0 10.487.487l2.336-2.336 3.64-3.639a.751.751 0 01.533-.221.758.758 0 01.537 1.295L8.128 7.884a.345.345 0 10.487.487l3.898-3.898 1.561-1.561a.758.758 0 011.103.03.802.802 0 01-.072 1.086l-.994.994v.002l-4.424 4.42a.345.345 0 10.487.487l4.42-4.42a.709.709 0 01.557-.222.752.752 0 01.544.252.739.739 0 01.163.631.798.798 0 01-.112.29c-.01.017-.018.033-.029.049a.877.877 0 01-.094.112l-1.468 1.475-.002.002-2.905 2.904a.345.345 0 10.487.487l2.899-2.9s.004-.001.005-.003a.718.718 0 01.935-.105c.017.01.035.017.05.03.016.01.033.03.05.044a.86.86 0 01.07.067.793.793 0 01.139.249c.019.064.03.13.03.197v.038a.86.86 0 01-.237.582l-.01.013-4.68 4.68a5.174 5.174 0 01-5.97.968 5.17 5.17 0 01-1.514-1.15zm13.543-1.218l-5.73 3.308a5.16 5.16 0 01-4.67.257c.43.052.863.054 1.292.007.035-.003.067-.01.1-.014.173-.021.341-.048.51-.084.06-.012.117-.03.177-.044.141-.034.282-.073.42-.118.067-.022.131-.046.197-.07a5.764 5.764 0 00.95-.449 2.65 2.65 0 00.185-.11 5.77 5.77 0 00.363-.255c.052-.039.106-.074.157-.115.15-.121.294-.25.432-.385.015-.014.032-.027.047-.042l1.133-1.133h.004c.06 0 .12-.016.172-.046l3.556-2.053.004-.003a.76.76 0 011.053.319.801.801 0 01-.352 1.03zM17.796 10l-1.802 1.04-.005.005-1.628.94 1.796-1.795a1.51 1.51 0 00.166-.202c.016-.022.03-.045.045-.068.03-.047.057-.096.081-.146.015-.03.032-.062.045-.094a1.61 1.61 0 00.093-.338l.014-.1a1.37 1.37 0 00.007-.138c0-.034-.003-.069-.005-.103 0-.02 0-.04-.003-.058l.495-.286a.76.76 0 011.057.312.803.803 0 01-.356 1.03zm.173-2.643l-1.219.704-.399.23a1.422 1.422 0 00-.098-.135 1.555 1.555 0 00-.145-.137l-.016-.015c-.029-.024-.06-.043-.09-.064-.032-.022-.057-.043-.088-.062a1.431 1.431 0 00-.4-.162l.6-.6c.058-.06.111-.125.159-.194l.052-.078c.025-.04.047-.081.07-.123a1.52 1.52 0 00.097-.237c.003-.01.008-.02.01-.03l.766-.442a.758.758 0 011.054.313.805.805 0 01-.352 1.032h-.001z" fill="#171717"/></svg>