<svg width="41" height="32" fill="none" xmlns="http://www.w3.org/2000/svg"><g clip-path="url(#clip0_7336_3435)" fill="#171717"><path d="M10.008 14.54a8.301 8.301 0 00-4.063 1.08 27.811 27.811 0 018.397-11.556A2.121 2.121 0 1011.645.79C3.942 7.05.514 15.716.514 21.09a9.784 9.784 0 005.912 8.916 8.473 8.473 0 003.621.848 8.165 8.165 0 100-16.313h-.039zm21.456 0a8.263 8.263 0 00-4.064 1.08 27.925 27.925 0 018.378-11.556A2.119 2.119 0 1033.1.79c-7.704 6.259-11.132 14.925-11.132 20.299a9.783 9.783 0 005.777 8.878 8.417 8.417 0 003.718.848 8.165 8.165 0 100-16.313v.039z"/></g><defs><clipPath id="clip0_7336_3435"><path fill="#fff" transform="translate(.5)" d="M0 0h40v32H0z"/></clipPath></defs></svg>